<svg width="263" height="70" viewBox="0 0 263 70" fill="none" xmlns="http://www.w3.org/2000/svg">
<mask id="mask0_25_13" style="mask-type:luminance" maskUnits="userSpaceOnUse" x="5" y="5" width="60" height="60">
<path d="M56.875 8.75H13.125C11.9647 8.75 10.8519 9.21094 10.0314 10.0314C9.21094 10.8519 8.75 11.9647 8.75 13.125V56.875C8.75 58.0353 9.21094 59.1481 10.0314 59.9686C10.8519 60.7891 11.9647 61.25 13.125 61.25H56.875C58.0353 61.25 59.1481 60.7891 59.9686 59.9686C60.7891 59.1481 61.25 58.0353 61.25 56.875V13.125C61.25 11.9647 60.7891 10.8519 59.9686 10.0314C59.1481 9.21094 58.0353 8.75 56.875 8.75Z" fill="white" stroke="white" stroke-width="5.83333"/>
<path d="M20.4167 21.875V48.125" stroke="black" stroke-width="5.83333" stroke-linecap="round" stroke-linejoin="round"/>
<path d="M23.3333 36.4583C27.7083 36.4583 33.5417 35.2917 33.5417 29.1667C33.5417 23.0417 27.7083 21.875 23.3333 21.875H20.4167V36.4583H23.3333Z" stroke="black" stroke-width="5.83333" stroke-linecap="round" stroke-linejoin="round"/>
<path d="M49.5833 30.6615C48.125 30.6615 40.8333 29.9352 40.8333 35.0175C40.8333 40.0998 49.5833 38.6488 49.5833 43.7325C49.5833 48.8163 40.8333 48.0886 40.8333 48.0886" stroke="black" stroke-width="5.83333" stroke-linecap="round" stroke-linejoin="round"/>
</mask>
<g mask="url(#mask0_25_13)">
<path d="M0 0H70V70H0V0Z" fill="black"/>
</g>
<path d="M88.796 45.976C87.964 45.7333 87.3833 45.4907 87.054 45.248C86.742 45.0053 86.586 44.702 86.586 44.338C86.586 44.0607 86.664 43.6707 86.82 43.168C86.976 42.6653 87.2013 42.076 87.496 41.4C87.808 40.7067 88.172 39.944 88.588 39.112C89.0213 38.28 89.5067 37.3873 90.044 36.434C89.5933 36.4167 89.186 36.408 88.822 36.408C88.4753 36.3907 88.1893 36.382 87.964 36.382C88.068 36.122 88.3627 35.8967 88.848 35.706C89.3333 35.5153 89.9747 35.3507 90.772 35.212C91.448 34.0853 92.1673 33.0107 92.93 31.988C93.71 30.9653 94.49 30.0293 95.27 29.18C96.05 28.3133 96.83 27.5593 97.61 26.918C98.39 26.2593 99.1353 25.7393 99.846 25.358C99.8633 25.2367 99.872 25.1327 99.872 25.046C99.8893 24.9593 99.898 24.8987 99.898 24.864C100.141 24.864 100.461 24.9247 100.86 25.046C101.276 25.1673 101.675 25.3147 102.056 25.488C102.455 25.6613 102.801 25.8433 103.096 26.034C103.408 26.2073 103.581 26.3547 103.616 26.476C103.044 27.4813 102.481 28.9893 101.926 31C101.371 32.9933 100.912 35.3853 100.548 38.176C100.461 38.8693 100.383 39.658 100.314 40.542C100.262 41.426 100.236 42.414 100.236 43.506C100.236 43.8873 100.236 44.2773 100.236 44.676C100.236 45.0747 100.253 45.4907 100.288 45.924C100.253 45.9413 100.219 45.95 100.184 45.95C100.149 45.95 100.08 45.95 99.976 45.95C99.7333 45.95 99.4473 45.9067 99.118 45.82C98.806 45.7507 98.494 45.6553 98.182 45.534C97.8873 45.43 97.6273 45.3087 97.402 45.17C97.194 45.0313 97.064 44.91 97.012 44.806C96.9947 44.5807 96.986 44.3553 96.986 44.13C96.986 43.922 96.986 43.6967 96.986 43.454C96.986 42.3793 97.0207 41.2873 97.09 40.178C97.1767 39.0687 97.3153 37.9247 97.506 36.746C97.2633 36.7287 96.9427 36.7113 96.544 36.694C96.1453 36.6593 95.6947 36.6333 95.192 36.616C94.7067 36.5987 94.178 36.5813 93.606 36.564C93.0513 36.5293 92.5053 36.5033 91.968 36.486C91.552 37.266 91.162 38.046 90.798 38.826C90.434 39.5887 90.122 40.36 89.862 41.14C89.5673 41.972 89.3247 42.804 89.134 43.636C88.9607 44.468 88.848 45.248 88.796 45.976ZM98.832 30.35C98.9013 30.1073 98.9793 29.778 99.066 29.362C99.17 28.9287 99.2653 28.478 99.352 28.01C98.9187 28.166 98.4333 28.452 97.896 28.868C97.376 29.284 96.83 29.804 96.258 30.428C95.7033 31.0347 95.1313 31.728 94.542 32.508C93.97 33.2707 93.4153 34.0853 92.878 34.952C94.334 34.8307 95.9893 34.7527 97.844 34.718C97.9827 33.99 98.13 33.2707 98.286 32.56C98.4593 31.832 98.6413 31.0953 98.832 30.35ZM109.059 31.858C109.406 31.858 109.804 31.962 110.255 32.17C110.706 32.378 111.104 32.6467 111.451 32.976C111.364 32.2827 111.252 31.6327 111.113 31.026C110.992 30.402 110.801 29.7607 110.541 29.102C110.298 28.4433 109.969 27.724 109.553 26.944C109.137 26.164 108.617 25.2713 107.993 24.266C108.045 24.11 108.158 23.928 108.331 23.72C108.522 23.512 108.73 23.3213 108.955 23.148C109.198 22.9573 109.44 22.7927 109.683 22.654C109.943 22.5153 110.186 22.4287 110.411 22.394C110.896 22.9313 111.356 23.6073 111.789 24.422C112.222 25.2193 112.604 26.086 112.933 27.022C113.262 27.9407 113.514 28.894 113.687 29.882C113.878 30.87 113.973 31.8147 113.973 32.716C113.973 33.6173 113.869 34.5447 113.661 35.498C113.47 36.4513 113.193 37.3873 112.829 38.306C112.482 39.2073 112.075 40.0653 111.607 40.88C111.139 41.6947 110.628 42.4227 110.073 43.064C109.536 43.7053 108.972 44.2253 108.383 44.624C107.794 45.04 107.204 45.3 106.615 45.404C105.419 45.2653 104.5 44.8753 103.859 44.234C103.235 43.61 102.923 42.7433 102.923 41.634C102.923 41.0447 103.01 40.4033 103.183 39.71C103.374 39.0167 103.616 38.332 103.911 37.656C104.223 36.9627 104.578 36.2953 104.977 35.654C105.393 34.9953 105.826 34.406 106.277 33.886C106.745 33.366 107.213 32.924 107.681 32.56C108.149 32.196 108.608 31.962 109.059 31.858ZM106.407 44.364C107.014 44.156 107.62 43.6967 108.227 42.986C108.834 42.2753 109.38 41.4433 109.865 40.49C110.35 39.5193 110.74 38.488 111.035 37.396C111.347 36.2867 111.503 35.2207 111.503 34.198C111.503 33.9033 111.503 33.7213 111.503 33.652C111.503 33.5827 111.494 33.5133 111.477 33.444C111.061 33.6173 110.619 33.912 110.151 34.328C109.683 34.744 109.215 35.2293 108.747 35.784C108.279 36.3213 107.837 36.9107 107.421 37.552C107.005 38.1933 106.632 38.8347 106.303 39.476C105.974 40.1173 105.714 40.7327 105.523 41.322C105.332 41.9113 105.237 42.4313 105.237 42.882C105.237 43.7487 105.627 44.2427 106.407 44.364ZM117.707 44.91C116.719 44.806 115.931 44.3727 115.341 43.61C114.752 42.8473 114.457 41.8767 114.457 40.698C114.457 40.0047 114.561 39.2853 114.769 38.54C114.977 37.7947 115.272 37.0753 115.653 36.382C116.035 35.6713 116.485 35.004 117.005 34.38C117.525 33.756 118.089 33.2187 118.695 32.768C119.649 32.0573 120.541 31.702 121.373 31.702C121.928 31.9967 122.474 32.612 123.011 33.548C123.098 33.548 123.176 33.548 123.245 33.548C123.315 33.5307 123.393 33.522 123.479 33.522C124.398 33.522 124.857 34.3367 124.857 35.966C124.857 37.058 124.675 38.098 124.311 39.086C123.965 40.0567 123.471 40.9407 122.829 41.738C122.205 42.5353 121.451 43.2113 120.567 43.766C119.701 44.3033 118.747 44.6847 117.707 44.91ZM119.033 36.72C118.739 37.1187 118.461 37.552 118.201 38.02C117.941 38.488 117.716 38.9647 117.525 39.45C117.335 39.918 117.187 40.3773 117.083 40.828C116.979 41.2613 116.927 41.6513 116.927 41.998C116.927 42.414 116.997 42.8127 117.135 43.194C117.274 43.5753 117.43 43.792 117.603 43.844C118.383 43.6707 119.094 43.35 119.735 42.882C120.394 42.3967 120.957 41.7987 121.425 41.088C121.911 40.3773 122.283 39.5713 122.543 38.67C122.821 37.7687 122.959 36.8067 122.959 35.784C122.959 35.3333 122.933 34.978 122.881 34.718C122.829 34.458 122.743 34.2327 122.621 34.042C121.859 34.2673 121.174 34.6313 120.567 35.134C119.978 35.6367 119.467 36.1653 119.033 36.72ZM128.508 44.182C129.305 43.6447 130.085 42.96 130.848 42.128C131.61 41.2787 132.304 40.3687 132.928 39.398C133.552 38.41 134.08 37.3873 134.514 36.33C134.947 35.2727 135.242 34.2587 135.398 33.288C135.398 33.08 135.285 32.9413 135.06 32.872C134.817 32.872 134.479 33.0887 134.046 33.522C133.63 33.938 133.162 34.4753 132.642 35.134C132.139 35.7927 131.619 36.5293 131.082 37.344C130.562 38.1587 130.085 38.9733 129.652 39.788C129.218 40.5853 128.846 41.3393 128.534 42.05C128.239 42.7433 128.074 43.3067 128.04 43.74C127.866 43.74 127.719 43.5667 127.598 43.22C127.563 43.1333 127.502 43.0467 127.416 42.96C127.329 42.856 127.19 42.7347 127 42.596C126.913 42.5267 126.826 42.4487 126.74 42.362C126.653 42.258 126.592 42.1713 126.558 42.102C126.488 41.9633 126.454 41.738 126.454 41.426C126.454 40.4033 126.584 39.2507 126.844 37.968C127.104 36.6853 127.442 35.3767 127.858 34.042C128.291 32.7073 128.794 31.3987 129.366 30.116C129.938 28.816 130.527 27.6287 131.134 26.554C131.758 25.4793 132.382 24.5693 133.006 23.824C133.63 23.0787 134.219 22.5847 134.774 22.342C134.947 22.394 135.155 22.4807 135.398 22.602C135.64 22.7233 135.883 22.862 136.126 23.018C136.368 23.174 136.594 23.33 136.802 23.486C137.027 23.642 137.192 23.7807 137.296 23.902C135.389 25.4447 133.734 27.4293 132.33 29.856C130.943 32.2653 129.808 35.1167 128.924 38.41C129.409 37.5087 129.955 36.642 130.562 35.81C131.168 34.9607 131.766 34.2153 132.356 33.574C132.962 32.9327 133.534 32.4213 134.072 32.04C134.626 31.6587 135.086 31.468 135.45 31.468C135.727 31.5373 135.996 31.6587 136.256 31.832C136.516 32.0053 136.75 32.222 136.958 32.482C137.166 32.7247 137.339 32.9933 137.478 33.288C137.616 33.5653 137.703 33.86 137.738 34.172C137.72 34.9 137.59 35.68 137.348 36.512C137.122 37.3267 136.81 38.1327 136.412 38.93C136.03 39.7273 135.588 40.49 135.086 41.218C134.6 41.946 134.08 42.5873 133.526 43.142C132.988 43.6793 132.442 44.1127 131.888 44.442C131.35 44.7713 130.839 44.936 130.354 44.936C130.146 44.936 129.929 44.91 129.704 44.858C129.496 44.8233 129.296 44.7627 129.106 44.676C128.932 44.6067 128.785 44.5287 128.664 44.442C128.56 44.3553 128.508 44.2687 128.508 44.182ZM147.687 33.236C147.618 34.3107 147.427 35.238 147.115 36.018C146.803 36.7807 146.353 37.4567 145.763 38.046C145.191 38.618 144.489 39.138 143.657 39.606C142.825 40.074 141.855 40.5247 140.745 40.958C140.745 41.062 140.737 41.1747 140.719 41.296C140.719 41.4 140.719 41.5127 140.719 41.634C140.719 41.8593 140.737 42.0933 140.771 42.336C140.806 42.5787 140.867 42.804 140.953 43.012C141.04 43.22 141.161 43.3933 141.317 43.532C141.473 43.6533 141.673 43.714 141.915 43.714C142.383 43.714 142.843 43.61 143.293 43.402C143.744 43.194 144.169 42.9427 144.567 42.648C144.983 42.336 145.365 42.0067 145.711 41.66C146.075 41.296 146.396 40.9667 146.673 40.672C146.847 40.828 146.994 40.9753 147.115 41.114C146.335 42.154 145.477 43.0207 144.541 43.714C143.623 44.39 142.747 44.8233 141.915 45.014C140.719 44.8753 139.783 44.442 139.107 43.714C138.449 42.9687 138.119 42.076 138.119 41.036C138.119 40.3253 138.215 39.606 138.405 38.878C138.613 38.1327 138.891 37.422 139.237 36.746C139.601 36.0527 140.017 35.4027 140.485 34.796C140.971 34.1893 141.482 33.6607 142.019 33.21C142.574 32.7593 143.137 32.404 143.709 32.144C144.299 31.884 144.879 31.754 145.451 31.754C146.249 31.858 146.994 32.352 147.687 33.236ZM145.893 34.094C145.425 34.1633 144.94 34.354 144.437 34.666C143.935 34.978 143.458 35.394 143.007 35.914C142.574 36.434 142.175 37.0407 141.811 37.734C141.447 38.4273 141.161 39.1727 140.953 39.97C142.34 39.2767 143.493 38.4273 144.411 37.422C145.33 36.3993 145.824 35.29 145.893 34.094ZM172.896 29.986C172.896 30.9393 172.654 31.8493 172.168 32.716C171.7 33.5827 171.059 34.3453 170.244 35.004C169.447 35.6453 168.502 36.1567 167.41 36.538C166.336 36.9193 165.192 37.11 163.978 37.11C163.545 37.11 163.198 37.058 162.938 36.954C162.696 36.8327 162.418 36.6073 162.106 36.278C161.24 38.1673 160.529 39.9093 159.974 41.504C159.437 43.0813 159.012 44.6153 158.7 46.106C158.042 45.95 157.504 45.6727 157.088 45.274C156.672 44.8927 156.291 44.4073 155.944 43.818C156.118 43.4887 156.326 43.0553 156.568 42.518C156.811 41.9807 157.106 41.322 157.452 40.542C157.799 39.7447 158.198 38.8 158.648 37.708C159.116 36.5987 159.662 35.3073 160.286 33.834C160.564 33.158 160.806 32.5687 161.014 32.066C161.222 31.5633 161.404 31.0953 161.56 30.662C161.716 30.2113 161.855 29.7693 161.976 29.336C162.115 28.9027 162.254 28.426 162.392 27.906C161.578 28.166 160.824 28.4693 160.13 28.816C159.454 29.1627 158.891 29.5267 158.44 29.908C158.284 29.804 158.12 29.648 157.946 29.44C157.79 29.232 157.643 29.0067 157.504 28.764C157.366 28.504 157.244 28.244 157.14 27.984C157.036 27.724 156.976 27.49 156.958 27.282C157.461 26.9353 158.085 26.6147 158.83 26.32C159.576 26.0253 160.373 25.774 161.222 25.566C162.072 25.3407 162.947 25.1673 163.848 25.046C164.767 24.9247 165.642 24.864 166.474 24.864C167.462 24.864 168.355 24.994 169.152 25.254C169.95 25.4967 170.626 25.8433 171.18 26.294C171.735 26.7447 172.16 27.282 172.454 27.906C172.749 28.53 172.896 29.2233 172.896 29.986ZM168.268 26.866C167.61 26.866 166.934 26.918 166.24 27.022L166.552 27.49C166.379 27.7153 166.162 28.0533 165.902 28.504C165.642 28.9547 165.356 29.5007 165.044 30.142C164.732 30.766 164.386 31.468 164.004 32.248C163.64 33.028 163.25 33.8513 162.834 34.718C164.186 34.718 165.417 34.5967 166.526 34.354C167.636 34.094 168.58 33.7473 169.36 33.314C170.158 32.8633 170.773 32.3433 171.206 31.754C171.657 31.1647 171.882 30.532 171.882 29.856C171.882 28.9547 171.579 28.2353 170.972 27.698C170.366 27.1433 169.464 26.866 168.268 26.866ZM171.742 43.558C171.742 42.9513 171.803 42.2407 171.924 41.426C172.045 40.594 172.219 39.71 172.444 38.774C172.687 37.838 172.964 36.8587 173.276 35.836C173.605 34.8133 173.969 33.7907 174.368 32.768C174.715 31.8493 175.113 30.922 175.564 29.986C176.032 29.05 176.535 28.1313 177.072 27.23C177.609 26.3287 178.164 25.4707 178.736 24.656C179.325 23.8413 179.915 23.096 180.504 22.42C180.781 22.42 181.076 22.4547 181.388 22.524C181.717 22.5933 182.029 22.6887 182.324 22.81C182.636 22.914 182.913 23.044 183.156 23.2C183.416 23.356 183.624 23.512 183.78 23.668C182.48 25.0027 181.31 26.3547 180.27 27.724C179.23 29.076 178.407 30.35 177.8 31.546C177.471 32.2047 177.167 32.82 176.89 33.392C176.63 33.964 176.387 34.536 176.162 35.108C175.937 35.6627 175.729 36.226 175.538 36.798C175.365 37.3527 175.2 37.942 175.044 38.566C178.372 34.3193 180.842 32.196 182.454 32.196C182.905 32.196 183.39 32.3433 183.91 32.638C184.43 32.9327 184.889 33.3313 185.288 33.834C184.751 34.4233 184.196 35.134 183.624 35.966C183.052 36.798 182.523 37.6387 182.038 38.488C181.57 39.32 181.18 40.1 180.868 40.828C180.573 41.5387 180.426 42.0673 180.426 42.414C180.426 42.5873 180.452 42.7087 180.504 42.778C180.556 42.83 180.669 42.856 180.842 42.856C181.102 42.856 181.31 42.8213 181.466 42.752C181.622 42.6827 181.717 42.648 181.752 42.648C181.839 42.7867 181.891 42.882 181.908 42.934C181.925 42.986 181.934 43.0293 181.934 43.064C181.934 43.1333 181.83 43.2373 181.622 43.376C181.414 43.4973 181.163 43.6273 180.868 43.766C180.591 43.8873 180.313 44 180.036 44.104C179.759 44.208 179.551 44.26 179.412 44.26C179.239 44.26 179.065 44.208 178.892 44.104C178.719 44.0173 178.563 43.896 178.424 43.74C178.303 43.584 178.199 43.4107 178.112 43.22C178.043 43.0293 178.008 42.83 178.008 42.622C178.008 42.362 178.077 41.9807 178.216 41.478C178.372 40.958 178.58 40.36 178.84 39.684C179.1 38.9907 179.412 38.2367 179.776 37.422C180.14 36.6073 180.53 35.7753 180.946 34.926C180.946 34.8567 180.911 34.822 180.842 34.822C180.79 34.822 180.651 34.8913 180.426 35.03C180.218 35.1687 180.019 35.3073 179.828 35.446C179.204 35.914 178.571 36.4947 177.93 37.188C177.306 37.864 176.691 38.6093 176.084 39.424C175.495 40.2387 174.931 41.1053 174.394 42.024C173.874 42.9253 173.423 43.8353 173.042 44.754C172.99 44.8753 172.912 44.988 172.808 45.092C172.704 45.196 172.617 45.248 172.548 45.248C172.496 45.248 172.418 45.1873 172.314 45.066C172.227 44.9447 172.141 44.7887 172.054 44.598C171.985 44.4247 171.915 44.2427 171.846 44.052C171.777 43.8613 171.742 43.6967 171.742 43.558ZM188.268 44.91C187.28 44.806 186.491 44.3727 185.902 43.61C185.312 42.8473 185.018 41.8767 185.018 40.698C185.018 40.0047 185.122 39.2853 185.33 38.54C185.538 37.7947 185.832 37.0753 186.214 36.382C186.595 35.6713 187.046 35.004 187.566 34.38C188.086 33.756 188.649 33.2187 189.256 32.768C190.209 32.0573 191.102 31.702 191.934 31.702C192.488 31.9967 193.034 32.612 193.572 33.548C193.658 33.548 193.736 33.548 193.806 33.548C193.875 33.5307 193.953 33.522 194.04 33.522C194.958 33.522 195.418 34.3367 195.418 35.966C195.418 37.058 195.236 38.098 194.872 39.086C194.525 40.0567 194.031 40.9407 193.39 41.738C192.766 42.5353 192.012 43.2113 191.128 43.766C190.261 44.3033 189.308 44.6847 188.268 44.91ZM189.594 36.72C189.299 37.1187 189.022 37.552 188.762 38.02C188.502 38.488 188.276 38.9647 188.086 39.45C187.895 39.918 187.748 40.3773 187.644 40.828C187.54 41.2613 187.488 41.6513 187.488 41.998C187.488 42.414 187.557 42.8127 187.696 43.194C187.834 43.5753 187.99 43.792 188.164 43.844C188.944 43.6707 189.654 43.35 190.296 42.882C190.954 42.3967 191.518 41.7987 191.986 41.088C192.471 40.3773 192.844 39.5713 193.104 38.67C193.381 37.7687 193.52 36.8067 193.52 35.784C193.52 35.3333 193.494 34.978 193.442 34.718C193.39 34.458 193.303 34.2327 193.182 34.042C192.419 34.2673 191.734 34.6313 191.128 35.134C190.538 35.6367 190.027 36.1653 189.594 36.72ZM197.956 34.042C197.87 33.938 197.792 33.7213 197.722 33.392C197.653 33.0453 197.618 32.7507 197.618 32.508C198.069 32.5427 198.502 32.5773 198.918 32.612C199.334 32.6293 199.716 32.6467 200.062 32.664C200.322 32.144 200.6 31.6327 200.894 31.13C201.206 30.61 201.501 30.142 201.778 29.726C202.073 29.2927 202.342 28.9287 202.584 28.634C202.844 28.3393 203.044 28.1487 203.182 28.062C203.356 28.062 203.572 28.0967 203.832 28.166C204.11 28.218 204.387 28.296 204.664 28.4C204.942 28.4867 205.193 28.582 205.418 28.686C205.644 28.79 205.8 28.894 205.886 28.998C205.366 29.6567 204.916 30.272 204.534 30.844C204.17 31.3987 203.772 32.04 203.338 32.768C203.685 32.768 204.032 32.7593 204.378 32.742C204.742 32.7247 205.106 32.6987 205.47 32.664C205.557 32.7507 205.626 32.8633 205.678 33.002C205.73 33.1233 205.756 33.2533 205.756 33.392C204.907 33.704 203.876 33.8773 202.662 33.912C202.229 34.744 201.839 35.576 201.492 36.408C201.163 37.2227 200.877 38.0113 200.634 38.774C200.409 39.5367 200.227 40.256 200.088 40.932C199.967 41.608 199.906 42.2147 199.906 42.752C199.906 43.5147 200.192 43.9393 200.764 44.026C201.284 43.9567 201.778 43.8267 202.246 43.636C202.714 43.4453 203.13 43.2027 203.494 42.908C203.598 43.064 203.659 43.194 203.676 43.298C203.572 43.454 203.39 43.636 203.13 43.844C202.888 44.052 202.619 44.2513 202.324 44.442C202.03 44.65 201.744 44.8233 201.466 44.962C201.189 45.1007 200.981 45.1787 200.842 45.196C200.409 45.1787 199.976 45.0833 199.542 44.91C199.109 44.7367 198.71 44.52 198.346 44.26C198 44 197.714 43.714 197.488 43.402C197.263 43.0727 197.15 42.752 197.15 42.44C197.15 42.024 197.202 41.504 197.306 40.88C197.428 40.2387 197.592 39.5453 197.8 38.8C198.008 38.0547 198.251 37.2747 198.528 36.46C198.806 35.6453 199.109 34.8393 199.438 34.042H197.956ZM208.631 44.91C207.643 44.806 206.854 44.3727 206.265 43.61C205.676 42.8473 205.381 41.8767 205.381 40.698C205.381 40.0047 205.485 39.2853 205.693 38.54C205.901 37.7947 206.196 37.0753 206.577 36.382C206.958 35.6713 207.409 35.004 207.929 34.38C208.449 33.756 209.012 33.2187 209.619 32.768C210.572 32.0573 211.465 31.702 212.297 31.702C212.852 31.9967 213.398 32.612 213.935 33.548C214.022 33.548 214.1 33.548 214.169 33.548C214.238 33.5307 214.316 33.522 214.403 33.522C215.322 33.522 215.781 34.3367 215.781 35.966C215.781 37.058 215.599 38.098 215.235 39.086C214.888 40.0567 214.394 40.9407 213.753 41.738C213.129 42.5353 212.375 43.2113 211.491 43.766C210.624 44.3033 209.671 44.6847 208.631 44.91ZM209.957 36.72C209.662 37.1187 209.385 37.552 209.125 38.02C208.865 38.488 208.64 38.9647 208.449 39.45C208.258 39.918 208.111 40.3773 208.007 40.828C207.903 41.2613 207.851 41.6513 207.851 41.998C207.851 42.414 207.92 42.8127 208.059 43.194C208.198 43.5753 208.354 43.792 208.527 43.844C209.307 43.6707 210.018 43.35 210.659 42.882C211.318 42.3967 211.881 41.7987 212.349 41.088C212.834 40.3773 213.207 39.5713 213.467 38.67C213.744 37.7687 213.883 36.8067 213.883 35.784C213.883 35.3333 213.857 34.978 213.805 34.718C213.753 34.458 213.666 34.2327 213.545 34.042C212.782 34.2673 212.098 34.6313 211.491 35.134C210.902 35.6367 210.39 36.1653 209.957 36.72ZM226.01 33.652C225.992 33.9813 225.932 34.328 225.828 34.692C225.741 35.0387 225.628 35.3593 225.49 35.654C225.351 35.9313 225.204 36.1653 225.048 36.356C224.892 36.5467 224.744 36.642 224.606 36.642C224.415 36.6247 224.302 36.4947 224.268 36.252C224.268 36.2 224.285 36.122 224.32 36.018C224.372 35.8967 224.424 35.7667 224.476 35.628C224.528 35.4893 224.571 35.3507 224.606 35.212C224.658 35.0733 224.684 34.952 224.684 34.848C224.684 34.6053 224.623 34.406 224.502 34.25C224.398 34.0767 224.25 33.99 224.06 33.99C223.366 33.99 222.838 34.4233 222.474 35.29C222.11 36.1567 221.928 37.4307 221.928 39.112C221.928 39.2853 221.936 39.3893 221.954 39.424C222.318 39.4067 222.638 39.398 222.916 39.398C223.21 39.3807 223.496 39.372 223.774 39.372C223.791 39.4067 223.8 39.476 223.8 39.58C223.8 39.736 223.765 39.8487 223.696 39.918C223.297 40.0047 222.976 40.0827 222.734 40.152C222.508 40.204 222.335 40.256 222.214 40.308C222.092 40.36 222.014 40.4207 221.98 40.49C221.962 40.542 221.954 40.62 221.954 40.724C221.954 40.8627 221.954 41.0013 221.954 41.14C221.971 41.2787 221.98 41.452 221.98 41.66C221.98 43.116 221.581 44.286 220.784 45.17C220.004 46.054 218.912 46.5653 217.508 46.704C217.265 46.6867 217.014 46.6173 216.754 46.496C216.494 46.3747 216.242 46.2187 216 46.028C215.774 45.8373 215.575 45.6207 215.402 45.378C215.228 45.1527 215.107 44.9187 215.038 44.676C215.038 44.0173 215.176 43.3933 215.454 42.804C215.731 42.1973 216.104 41.6687 216.572 41.218C217.057 40.75 217.62 40.3773 218.262 40.1C218.92 39.8053 219.631 39.632 220.394 39.58C220.394 39.1467 220.35 38.722 220.264 38.306C220.177 37.89 220.082 37.4913 219.978 37.11C219.891 36.7113 219.804 36.33 219.718 35.966C219.631 35.5847 219.588 35.212 219.588 34.848C219.588 34.38 219.683 33.9207 219.874 33.47C220.064 33.002 220.316 32.5773 220.628 32.196C220.94 31.7973 221.304 31.4593 221.72 31.182C222.136 30.9047 222.569 30.714 223.02 30.61C223.21 30.662 223.462 30.818 223.774 31.078C224.103 31.3207 224.424 31.598 224.736 31.91C225.048 32.222 225.325 32.5427 225.568 32.872C225.81 33.184 225.958 33.444 226.01 33.652ZM217.43 45.508C217.846 45.3347 218.236 45.0833 218.6 44.754C218.981 44.4247 219.31 44.052 219.588 43.636C219.865 43.22 220.082 42.778 220.238 42.31C220.411 41.842 220.498 41.3827 220.498 40.932C220.151 40.984 219.77 41.1487 219.354 41.426C218.938 41.686 218.548 42.0067 218.184 42.388C217.82 42.752 217.516 43.1333 217.274 43.532C217.031 43.9307 216.91 44.2773 216.91 44.572C216.91 44.9533 217.083 45.2653 217.43 45.508ZM226.002 43.558C226.002 42.9513 226.063 42.2407 226.184 41.426C226.305 40.594 226.479 39.71 226.704 38.774C226.947 37.838 227.224 36.8587 227.536 35.836C227.865 34.8133 228.229 33.7907 228.628 32.768C228.975 31.8493 229.373 30.922 229.824 29.986C230.292 29.05 230.795 28.1313 231.332 27.23C231.869 26.3287 232.424 25.4707 232.996 24.656C233.585 23.8413 234.175 23.096 234.764 22.42C235.041 22.42 235.336 22.4547 235.648 22.524C235.977 22.5933 236.289 22.6887 236.584 22.81C236.896 22.914 237.173 23.044 237.416 23.2C237.676 23.356 237.884 23.512 238.04 23.668C236.74 25.0027 235.57 26.3547 234.53 27.724C233.49 29.076 232.667 30.35 232.06 31.546C231.731 32.2047 231.427 32.82 231.15 33.392C230.89 33.964 230.647 34.536 230.422 35.108C230.197 35.6627 229.989 36.226 229.798 36.798C229.625 37.3527 229.46 37.942 229.304 38.566C232.632 34.3193 235.102 32.196 236.714 32.196C237.165 32.196 237.65 32.3433 238.17 32.638C238.69 32.9327 239.149 33.3313 239.548 33.834C239.011 34.4233 238.456 35.134 237.884 35.966C237.312 36.798 236.783 37.6387 236.298 38.488C235.83 39.32 235.44 40.1 235.128 40.828C234.833 41.5387 234.686 42.0673 234.686 42.414C234.686 42.5873 234.712 42.7087 234.764 42.778C234.816 42.83 234.929 42.856 235.102 42.856C235.362 42.856 235.57 42.8213 235.726 42.752C235.882 42.6827 235.977 42.648 236.012 42.648C236.099 42.7867 236.151 42.882 236.168 42.934C236.185 42.986 236.194 43.0293 236.194 43.064C236.194 43.1333 236.09 43.2373 235.882 43.376C235.674 43.4973 235.423 43.6273 235.128 43.766C234.851 43.8873 234.573 44 234.296 44.104C234.019 44.208 233.811 44.26 233.672 44.26C233.499 44.26 233.325 44.208 233.152 44.104C232.979 44.0173 232.823 43.896 232.684 43.74C232.563 43.584 232.459 43.4107 232.372 43.22C232.303 43.0293 232.268 42.83 232.268 42.622C232.268 42.362 232.337 41.9807 232.476 41.478C232.632 40.958 232.84 40.36 233.1 39.684C233.36 38.9907 233.672 38.2367 234.036 37.422C234.4 36.6073 234.79 35.7753 235.206 34.926C235.206 34.8567 235.171 34.822 235.102 34.822C235.05 34.822 234.911 34.8913 234.686 35.03C234.478 35.1687 234.279 35.3073 234.088 35.446C233.464 35.914 232.831 36.4947 232.19 37.188C231.566 37.864 230.951 38.6093 230.344 39.424C229.755 40.2387 229.191 41.1053 228.654 42.024C228.134 42.9253 227.683 43.8353 227.302 44.754C227.25 44.8753 227.172 44.988 227.068 45.092C226.964 45.196 226.877 45.248 226.808 45.248C226.756 45.248 226.678 45.1873 226.574 45.066C226.487 44.9447 226.401 44.7887 226.314 44.598C226.245 44.4247 226.175 44.2427 226.106 44.052C226.037 43.8613 226.002 43.6967 226.002 43.558ZM242.528 44.91C241.54 44.806 240.751 44.3727 240.162 43.61C239.572 42.8473 239.278 41.8767 239.278 40.698C239.278 40.0047 239.382 39.2853 239.59 38.54C239.798 37.7947 240.092 37.0753 240.474 36.382C240.855 35.6713 241.306 35.004 241.826 34.38C242.346 33.756 242.909 33.2187 243.516 32.768C244.469 32.0573 245.362 31.702 246.194 31.702C246.748 31.9967 247.294 32.612 247.832 33.548C247.918 33.548 247.996 33.548 248.066 33.548C248.135 33.5307 248.213 33.522 248.3 33.522C249.218 33.522 249.678 34.3367 249.678 35.966C249.678 37.058 249.496 38.098 249.132 39.086C248.785 40.0567 248.291 40.9407 247.65 41.738C247.026 42.5353 246.272 43.2113 245.388 43.766C244.521 44.3033 243.568 44.6847 242.528 44.91ZM243.854 36.72C243.559 37.1187 243.282 37.552 243.022 38.02C242.762 38.488 242.536 38.9647 242.346 39.45C242.155 39.918 242.008 40.3773 241.904 40.828C241.8 41.2613 241.748 41.6513 241.748 41.998C241.748 42.414 241.817 42.8127 241.956 43.194C242.094 43.5753 242.25 43.792 242.424 43.844C243.204 43.6707 243.914 43.35 244.556 42.882C245.214 42.3967 245.778 41.7987 246.246 41.088C246.731 40.3773 247.104 39.5713 247.364 38.67C247.641 37.7687 247.78 36.8067 247.78 35.784C247.78 35.3333 247.754 34.978 247.702 34.718C247.65 34.458 247.563 34.2327 247.442 34.042C246.679 34.2673 245.994 34.6313 245.388 35.134C244.798 35.6367 244.287 36.1653 243.854 36.72ZM249.038 52.606C248.795 52.5367 248.657 52.2767 248.622 51.826C248.553 51.6007 248.501 51.332 248.466 51.02C248.449 50.708 248.44 50.3527 248.44 49.954C248.44 49.59 248.501 49.0873 248.622 48.446C248.743 47.822 248.908 47.1113 249.116 46.314C249.341 45.5167 249.61 44.6587 249.922 43.74C250.234 42.804 250.581 41.8593 250.962 40.906C251.43 39.71 251.837 38.6787 252.184 37.812C252.531 36.928 252.817 36.1653 253.042 35.524C253.285 34.8827 253.475 34.354 253.614 33.938C253.77 33.522 253.891 33.1667 253.978 32.872C254.047 32.664 254.151 32.4127 254.29 32.118C254.429 31.8233 254.585 31.5287 254.758 31.234C254.949 30.922 255.139 30.636 255.33 30.376C255.521 30.0987 255.694 29.8907 255.85 29.752C256.457 29.8387 257.029 29.9947 257.566 30.22C258.103 30.4453 258.433 30.662 258.554 30.87C258.311 31.0953 258.034 31.4507 257.722 31.936C257.41 32.404 257.107 32.924 256.812 33.496C256.517 34.0507 256.249 34.6227 256.006 35.212C255.763 35.8013 255.581 36.3213 255.46 36.772C255.633 36.4773 255.859 36.1567 256.136 35.81C256.413 35.4633 256.838 34.9867 257.41 34.38C258.051 33.7213 258.649 33.2187 259.204 32.872C259.776 32.508 260.27 32.326 260.686 32.326C261.345 32.326 261.882 32.508 262.298 32.872C262.731 33.236 262.948 33.704 262.948 34.276C262.948 35.524 262.74 36.7633 262.324 37.994C261.908 39.2073 261.31 40.308 260.53 41.296C260.235 41.6773 259.889 42.0413 259.49 42.388C259.091 42.7347 258.675 43.0467 258.242 43.324C257.809 43.584 257.384 43.792 256.968 43.948C256.552 44.104 256.179 44.182 255.85 44.182C255.538 44.182 255.261 44.1213 255.018 44C254.793 43.8613 254.637 43.6967 254.55 43.506C255.226 43.1073 255.885 42.5527 256.526 41.842C257.167 41.1313 257.757 40.3167 258.294 39.398C258.849 38.462 259.325 37.4567 259.724 36.382C260.14 35.3073 260.452 34.2153 260.66 33.106C260.001 33.4527 259.403 33.834 258.866 34.25C258.346 34.6487 257.826 35.1773 257.306 35.836C256.682 36.5987 256.188 37.214 255.824 37.682C255.46 38.15 255.157 38.5487 254.914 38.878C254.689 39.2073 254.498 39.5193 254.342 39.814C254.203 40.0913 254.047 40.438 253.874 40.854C253.631 41.4087 253.345 42.1453 253.016 43.064C252.704 43.9653 252.375 44.9793 252.028 46.106C251.699 47.2327 251.361 48.4287 251.014 49.694C250.685 50.9767 250.364 52.2507 250.052 53.516C249.861 53.4813 249.697 53.3427 249.558 53.1C249.419 52.944 249.315 52.8313 249.246 52.762C249.194 52.6927 249.125 52.6407 249.038 52.606Z" fill="black"/>
</svg>
