<svg width="60" height="60" viewBox="0 0 60 60" fill="none" xmlns="http://www.w3.org/2000/svg">
<path d="M16.25 40.0975C18.4333 40.0975 20.5558 40.3475 22.6175 40.8475C24.6792 41.3475 26.7233 42.1642 28.75 43.2975V18.77C26.945 17.4817 24.9567 16.515 22.785 15.87C20.61 15.2267 18.4317 14.905 16.25 14.905C14.75 14.905 13.4367 14.9942 12.31 15.1725C11.1833 15.3509 9.9325 15.6842 8.5575 16.1725C8.17417 16.3009 7.90167 16.4859 7.74 16.7275C7.58 16.9675 7.5 17.2317 7.5 17.52V40.0575C7.5 40.5075 7.66 40.8359 7.98 41.0425C8.3 41.2492 8.6525 41.2742 9.0375 41.1175C9.95083 40.8092 11.0067 40.5617 12.205 40.375C13.4033 40.1884 14.7517 40.0959 16.25 40.0975ZM31.25 43.2975C33.2767 42.1675 35.3208 41.3509 37.3825 40.8475C39.4442 40.3442 41.5667 40.0942 43.75 40.0975C45.25 40.0975 46.5983 40.19 47.795 40.375C48.9917 40.56 50.0475 40.8067 50.9625 41.115C51.3458 41.275 51.6983 41.2509 52.02 41.0425C52.3417 40.8342 52.5017 40.5059 52.5 40.0575V17.52C52.5 17.2317 52.42 16.975 52.26 16.75C52.1 16.5267 51.8275 16.335 51.4425 16.175C50.0675 15.6867 48.8167 15.3534 47.69 15.175C46.5633 14.9967 45.25 14.9059 43.75 14.9025C41.5667 14.9025 39.3892 15.2242 37.2175 15.8675C35.0442 16.5125 33.055 17.4792 31.25 18.7675V43.2975ZM30 46.14C29.6083 46.14 29.2483 46.0909 28.92 45.9925C28.5917 45.8942 28.2783 45.7692 27.98 45.6175C26.1633 44.6259 24.2717 43.8742 22.305 43.3625C20.3383 42.8509 18.32 42.5967 16.25 42.6C14.95 42.6 13.6717 42.7084 12.415 42.925C11.16 43.1434 9.93833 43.4934 8.75 43.975C7.84333 44.3367 6.99167 44.2275 6.195 43.6475C5.39833 43.0675 5 42.265 5 41.24V17.0775C5 16.4592 5.1625 15.885 5.4875 15.355C5.8125 14.825 6.26833 14.4567 6.855 14.25C8.32333 13.6034 9.85083 13.1342 11.4375 12.8425C13.0242 12.5509 14.6283 12.405 16.25 12.405C18.7 12.405 21.0883 12.7575 23.415 13.4625C25.745 14.1675 27.94 15.1925 30 16.5375C32.0617 15.1925 34.2567 14.1675 36.585 13.4625C38.9133 12.7575 41.3017 12.405 43.75 12.405C45.3717 12.405 46.9758 12.5509 48.5625 12.8425C50.1492 13.1342 51.6767 13.6034 53.145 14.25C53.7317 14.4584 54.1875 14.8267 54.5125 15.355C54.8375 15.8834 55 16.4575 55 17.0775V41.24C55 42.2634 54.57 43.0492 53.71 43.5975C52.8483 44.1442 51.9317 44.2367 50.96 43.875C49.805 43.425 48.6233 43.1 47.415 42.9C46.2083 42.6984 44.9867 42.5975 43.75 42.5975C41.6833 42.5975 39.6658 42.8525 37.6975 43.3625C35.7292 43.8725 33.8367 44.6234 32.02 45.615C31.72 45.77 31.4067 45.8959 31.08 45.9925C30.7517 46.0909 30.3917 46.14 30 46.14ZM34.7125 22.37C34.7125 22.1867 34.7758 22.0017 34.9025 21.815C35.0292 21.6284 35.1792 21.4884 35.3525 21.395C36.6242 20.8184 37.9683 20.3767 39.385 20.07C40.8017 19.7667 42.2567 19.615 43.75 19.615C44.55 19.615 45.3083 19.6592 46.025 19.7475C46.7417 19.8359 47.48 19.9634 48.24 20.13C48.455 20.18 48.6417 20.2925 48.8 20.4675C48.96 20.6409 49.04 20.855 49.04 21.11C49.04 21.53 48.915 21.835 48.665 22.025C48.415 22.215 48.08 22.2584 47.66 22.155C47.0433 22.03 46.4125 21.9442 45.7675 21.8975C45.1208 21.8509 44.4483 21.8275 43.75 21.8275C42.41 21.8275 41.0992 21.9559 39.8175 22.2125C38.5342 22.4692 37.3175 22.8275 36.1675 23.2875C35.7392 23.4525 35.3892 23.4484 35.1175 23.275C34.8458 23.1017 34.7108 22.8 34.7125 22.37ZM34.7125 35.9275C34.7125 35.7442 34.7758 35.5517 34.9025 35.35C35.0292 35.145 35.1792 34.9967 35.3525 34.905C36.5608 34.3284 37.905 33.895 39.385 33.605C40.865 33.3167 42.32 33.1725 43.75 33.1725C44.55 33.1725 45.3083 33.2167 46.025 33.305C46.7417 33.3934 47.48 33.5209 48.24 33.6875C48.455 33.7375 48.6417 33.85 48.8 34.025C48.96 34.1984 49.04 34.4125 49.04 34.6675C49.04 35.0875 48.915 35.3925 48.665 35.5825C48.415 35.7725 48.08 35.8159 47.66 35.7125C47.0433 35.5875 46.4125 35.5017 45.7675 35.455C45.1208 35.4084 44.4483 35.385 43.75 35.385C42.4433 35.385 41.1567 35.5184 39.89 35.785C38.6233 36.0534 37.415 36.4342 36.265 36.9275C35.835 37.1242 35.4683 37.1217 35.165 36.92C34.8617 36.7184 34.7108 36.3875 34.7125 35.9275ZM34.7125 29.1975C34.7125 29.0142 34.7758 28.8292 34.9025 28.6425C35.0292 28.4559 35.1792 28.3159 35.3525 28.2225C36.6242 27.6442 37.9683 27.2025 39.385 26.8975C40.8017 26.5942 42.2567 26.4425 43.75 26.4425C44.55 26.4425 45.3083 26.4867 46.025 26.575C46.7417 26.6634 47.48 26.7909 48.24 26.9575C48.455 27.0075 48.6417 27.1192 48.8 27.2925C48.96 27.4659 49.04 27.6809 49.04 27.9375C49.04 28.3575 48.915 28.6625 48.665 28.8525C48.415 29.0425 48.08 29.085 47.66 28.98C47.0433 28.855 46.4125 28.77 45.7675 28.725C45.1208 28.6784 44.4483 28.655 43.75 28.655C42.41 28.655 41.0992 28.7834 39.8175 29.04C38.5342 29.295 37.3175 29.6534 36.1675 30.115C35.7392 30.2784 35.3892 30.2742 35.1175 30.1025C34.8475 29.9275 34.7125 29.6259 34.7125 29.1975Z" fill="black"/>
</svg>
