<svg width="153" height="70" viewBox="0 0 153 70" fill="none" xmlns="http://www.w3.org/2000/svg">
<g clip-path="url(#clip0_25_14)">
<path d="M35 0C15.6713 0 0 15.6713 0 35C0 54.3288 15.6713 70 35 70C54.3288 70 70 54.3288 70 35C70 15.6713 54.3288 0 35 0ZM20.3058 22.4C22.505 22.4 24.2054 24.0013 24.4037 25.9C24.605 27.6004 23.905 29.0996 22.0063 30.0008C21.0058 30.4996 20.6063 30.5025 20.405 30.2021C20.3058 30.0008 20.405 29.8025 20.6063 29.6013C22.4058 28.1021 22.4058 26.9004 22.2046 25.2029C22.1054 24.1004 21.3063 23.4004 20.5042 23.4004C17.0042 23.4004 12.005 31.1996 12.705 36.9017C13.0054 39.1008 14.3062 41.7025 17.1062 41.7025C18.0046 41.7025 19.0021 41.4021 19.9062 41.0025C21.3646 40.2325 22.2367 39.6317 23.1058 38.6692C22.8929 36.0879 25.1592 32.7017 28.5046 32.7017C30.0067 32.7017 31.2054 33.2996 31.3046 34.4021C31.5029 35.9013 30.205 36.0996 29.8054 36.0996C29.4058 36.0996 28.7029 36.0004 28.7029 35.6038C28.6038 35.2013 29.6042 35.3996 29.505 34.5013C29.4029 33.9004 28.805 33.7021 28.2042 33.7021C26.1042 33.7021 24.9054 36.6013 25.2029 38.4008C25.305 39.2029 25.7046 40.0021 26.5067 40.0021C27.1046 40.0021 28.0058 39.0979 28.3062 37.8C28.5046 36.9017 29.3067 36.3008 30.0067 36.3008C30.3042 36.3008 30.5025 36.4 30.6046 36.7996V37.2021C30.5054 37.6017 30.205 38.8004 30.3071 39.1008C30.3071 39.3021 30.4062 39.5996 30.8029 39.5996C31.0713 39.5996 32.0746 39.0746 33.0692 38.2608C33.4104 36.54 33.8071 34.475 33.8071 34.3029C33.9062 33.6029 34.2067 32.9029 35.6067 32.9029C35.9071 32.9029 36.1054 33.0021 36.2046 33.4017V33.8042L35.8079 35.6038C37.1058 33.9033 39.0075 32.7046 40.2062 32.7046C40.7079 32.7046 41.1075 33.0021 41.1075 33.5038C41.1075 33.8042 41.1075 34.3029 40.9062 34.8046C40.5067 35.9042 40.005 37.6046 39.7046 39.1037C39.7046 39.5033 39.8067 39.9029 40.3083 39.9029C40.81 39.9029 42.3063 39.3021 43.505 37.7038L43.5254 37.6921C43.5196 37.4938 43.505 37.3013 43.505 37.1029C43.505 35.9042 43.6071 34.9038 43.8083 34.2038C44.0067 33.4046 45.0071 32.7046 45.6079 32.7046C45.9083 32.7046 46.2058 32.9058 46.2058 33.2033C46.2058 33.3054 46.2058 33.5037 46.1067 33.6029C45.7071 34.9038 45.4067 36.1025 45.4067 37.3042C45.4067 38.0042 45.5058 39.0017 45.7042 39.6025C45.7042 39.7017 45.8063 39.8038 45.9083 39.8038C46.1067 39.8038 47.5067 38.5058 48.5042 36.8054C47.6058 36.2046 47.1042 35.2042 47.1042 34.0054C47.1042 31.9054 48.405 30.8058 49.6067 30.8058C50.6071 30.8058 51.4062 31.5058 51.4062 32.9058C51.4062 33.8042 51.1058 34.8017 50.6071 35.7058H50.9046C51.2218 35.7162 51.5377 35.6591 51.8313 35.5385C52.1249 35.4178 52.3896 35.2363 52.6079 35.0058C52.7007 34.8552 52.837 34.7362 52.9987 34.6646C53.9758 33.425 55.4196 32.5063 57.1112 32.5063C58.5112 32.5063 59.8063 33.1042 59.9083 34.2038C60.1067 35.7058 58.8058 36.0063 58.4062 36.0063L58.4004 36.0004C57.9979 36.0004 57.3008 35.8983 57.3008 35.4987C57.3008 35.0992 58.2021 35.3004 58.1 34.4021C58.0008 33.8013 57.4 33.6 56.7992 33.6C54.7983 33.6 53.5033 36.1987 53.8008 38.2987C53.9 39.1008 54.2996 39.9992 55.0988 39.9992C55.6996 39.9992 56.6008 39.1008 57.0004 37.8C57.1987 37.0008 58.0008 36.3008 58.7008 36.3008C59.0013 36.3008 59.1967 36.4 59.2987 36.7996C59.2987 37.0008 59.2988 37.4004 58.8992 38.7013C58.4033 39.5996 58.4004 40.1012 58.4996 40.5008C58.5988 41.3 58.9983 41.9008 59.4008 42.2013C59.5 42.3004 59.5992 42.4988 59.5992 42.4988C59.5992 42.7 59.5 42.9012 59.1996 42.9012C59.1004 42.9012 59.0013 42.9012 58.8992 42.7992C57.4 42.2013 56.7992 41.2008 56.5979 40.2004C56 40.9004 55.3 41.3 54.4979 41.3C53.2 41.3 51.9021 40.1013 51.6979 38.5992C51.6399 37.9599 51.7143 37.3155 51.9167 36.7062C51.3246 37.0854 50.6858 37.2983 50.0996 37.2983H49.6038C48.3 39.2 46.9 40.5008 45.8996 41.0988C45.5597 41.2792 45.1843 41.3828 44.8 41.4021C44.6017 41.4021 44.3013 41.3 44.2021 41.0988C43.925 40.6554 43.7471 39.9554 43.6392 39.1533C42.2363 40.6904 40.2996 41.5013 39.4012 41.5013C38.4008 41.5013 37.8029 40.9004 37.7038 39.8971V38.8004C38.0013 36.6013 38.8033 35.3004 38.8033 34.9008C38.8006 34.8481 38.7786 34.7981 38.7415 34.7605C38.7044 34.7229 38.6548 34.7002 38.6021 34.6967C37.9021 34.6967 35.6038 37.1 35.2013 38.7013L34.9008 39.9992C34.7025 40.9004 33.8013 41.5013 33.2033 41.5013C32.9029 41.5013 32.7017 41.3992 32.6025 40.9996V40.6L32.7367 39.9204C31.4679 40.8246 30.1992 41.4021 29.6013 41.4021C28.7029 41.4021 28.2013 40.9004 28.1021 40.2004C27.5013 40.9996 26.8042 41.4021 25.9029 41.4021C24.8762 41.4021 23.8729 40.7021 23.3888 39.6725C22.6771 40.4746 21.8633 41.2854 20.9037 41.9008C19.5037 42.8021 17.9054 43.5021 16.0037 43.5021C14.3063 43.5021 12.8042 42.6008 12.005 41.8017C10.8033 40.7021 10.1063 39.0017 10.0042 37.4004C9.40625 32.5004 12.4046 26.2004 17.0042 23.4004C18.1067 22.8025 19.2063 22.4 20.3058 22.4ZM48.8017 31.9988C48.4983 31.9988 48.3 32.5004 48.3 32.9992C48.3 33.7983 48.6996 34.6996 49.2012 35.2013C49.3991 34.6562 49.4998 34.0807 49.4988 33.5008C49.4988 32.5004 49.1021 31.9988 48.8017 31.9988Z" fill="black"/>
</g>
<path d="M88.692 38.904C88.692 37.6907 88.8307 36.5033 89.108 35.342C89.4027 34.1633 89.81 33.054 90.33 32.014C90.85 30.9567 91.4653 29.9947 92.176 29.128C92.904 28.244 93.6927 27.4813 94.542 26.84C95.4087 26.1987 96.3273 25.7047 97.298 25.358C98.2687 24.994 99.2653 24.812 100.288 24.812C101.484 24.812 102.411 25.0633 103.07 25.566C103.746 26.0687 104.084 26.7707 104.084 27.672C104.084 28.0187 104.032 28.374 103.928 28.738C103.841 29.102 103.703 29.466 103.512 29.83C103.339 30.1767 103.131 30.5147 102.888 30.844C102.645 31.1733 102.377 31.4593 102.082 31.702C101.631 31.6327 101.241 31.4333 100.912 31.104C100.583 30.7573 100.375 30.3587 100.288 29.908C100.895 29.4053 101.371 28.8853 101.718 28.348C102.082 27.7933 102.264 27.2907 102.264 26.84C102.264 26.0773 101.787 25.696 100.834 25.696C100.435 25.696 100.019 25.7827 99.586 25.956C99.17 26.112 98.7453 26.3373 98.312 26.632C97.8787 26.9267 97.454 27.282 97.038 27.698C96.6393 28.114 96.2667 28.5733 95.92 29.076C93.5107 32.5427 92.306 36.0873 92.306 39.71C92.306 40.9927 92.5053 42.024 92.904 42.804C93.3027 43.584 93.8313 44.0433 94.49 44.182C95.2353 44.0087 96.18 43.532 97.324 42.752C98.468 41.972 99.716 40.958 101.068 39.71C101.241 39.8833 101.345 40.0653 101.38 40.256C100.877 40.9147 100.357 41.5473 99.82 42.154C99.2827 42.7607 98.7453 43.3153 98.208 43.818C97.688 44.3207 97.168 44.7627 96.648 45.144C96.1453 45.5253 95.6773 45.82 95.244 46.028C93.0947 45.9933 91.4653 45.378 90.356 44.182C89.2467 42.986 88.692 41.2267 88.692 38.904ZM112.183 33.496C112.357 33.496 112.556 33.5307 112.781 33.6C113.024 33.652 113.241 33.73 113.431 33.834C113.622 33.9207 113.778 34.016 113.899 34.12C114.038 34.224 114.107 34.3193 114.107 34.406C113.761 35.134 113.44 35.8707 113.145 36.616C112.851 37.344 112.599 38.046 112.391 38.722C112.183 39.398 112.019 40.0307 111.897 40.62C111.793 41.2093 111.741 41.7207 111.741 42.154C111.741 42.6393 111.793 43.0467 111.897 43.376C112.001 43.688 112.175 43.9133 112.417 44.052C112.209 44.1907 111.941 44.3033 111.611 44.39C111.282 44.4767 110.987 44.52 110.727 44.52C109.791 44.52 109.323 43.8787 109.323 42.596C109.323 41.608 109.653 40.256 110.311 38.54C109.965 39.3373 109.566 40.0913 109.115 40.802C108.665 41.4953 108.205 42.1107 107.737 42.648C107.269 43.1853 106.793 43.6273 106.307 43.974C105.839 44.3033 105.406 44.5027 105.007 44.572C104.366 44.5373 103.846 44.234 103.447 43.662C103.049 43.0727 102.849 42.3273 102.849 41.426C102.849 40.4553 103.057 39.4327 103.473 38.358C103.889 37.2833 104.418 36.2867 105.059 35.368C105.718 34.4493 106.429 33.6867 107.191 33.08C107.954 32.456 108.691 32.1267 109.401 32.092C109.575 32.144 109.765 32.248 109.973 32.404C110.199 32.56 110.407 32.742 110.597 32.95C110.805 33.158 110.979 33.3747 111.117 33.6C111.256 33.808 111.334 33.99 111.351 34.146C110.658 34.25 109.939 34.588 109.193 35.16C108.465 35.732 107.798 36.4253 107.191 37.24C106.602 38.0373 106.117 38.8953 105.735 39.814C105.354 40.7327 105.163 41.5907 105.163 42.388C105.163 42.7173 105.285 42.9253 105.527 43.012C106.03 42.908 106.611 42.4833 107.269 41.738C107.928 40.9753 108.725 39.8053 109.661 38.228C109.835 37.916 110.025 37.5693 110.233 37.188C110.459 36.8067 110.684 36.408 110.909 35.992C111.135 35.576 111.351 35.16 111.559 34.744C111.785 34.3107 111.993 33.8947 112.183 33.496ZM119.638 31.39C120.089 31.5287 120.514 31.8407 120.912 32.326C121.311 32.794 121.606 33.314 121.796 33.886C121.606 34.354 121.311 34.9173 120.912 35.576C120.514 36.2347 120.115 36.9107 119.716 37.604C119.318 38.28 118.954 38.93 118.624 39.554C118.312 40.1607 118.13 40.6633 118.078 41.062C118.356 40.7673 118.659 40.4293 118.988 40.048C119.335 39.6493 119.664 39.2593 119.976 38.878C120.306 38.4793 120.609 38.124 120.886 37.812C121.164 37.4827 121.38 37.24 121.536 37.084C121.866 36.7373 122.256 36.3387 122.706 35.888C123.157 35.42 123.625 34.9867 124.11 34.588C124.613 34.172 125.116 33.8253 125.618 33.548C126.121 33.2533 126.58 33.106 126.996 33.106C127.447 33.106 127.82 33.262 128.114 33.574C128.426 33.8687 128.669 34.1807 128.842 34.51C128.842 34.5447 128.773 34.5967 128.634 34.666C128.513 34.718 128.331 34.8827 128.088 35.16C127.846 35.472 127.568 35.9053 127.256 36.46C126.962 36.9973 126.667 37.5867 126.372 38.228C126.095 38.852 125.861 39.4933 125.67 40.152C125.48 40.8107 125.384 41.4087 125.384 41.946C125.384 42.3793 125.436 42.6567 125.54 42.778C125.662 42.8993 125.826 42.96 126.034 42.96C126.225 42.96 126.424 42.9167 126.632 42.83C126.84 42.7433 127.005 42.7 127.126 42.7C127.196 42.7347 127.248 42.8127 127.282 42.934C127.334 43.038 127.36 43.1333 127.36 43.22C127.222 43.3413 127.057 43.4627 126.866 43.584C126.676 43.7053 126.476 43.818 126.268 43.922C126.06 44.026 125.852 44.1127 125.644 44.182C125.454 44.2513 125.28 44.286 125.124 44.286C124.622 44.286 124.206 44.208 123.876 44.052C123.564 43.9133 123.313 43.7227 123.122 43.48C122.949 43.2373 122.828 42.9513 122.758 42.622C122.689 42.2753 122.654 41.9113 122.654 41.53C122.654 41.322 122.672 41.088 122.706 40.828C122.741 40.568 122.81 40.2647 122.914 39.918C123.018 39.554 123.166 39.1293 123.356 38.644C123.547 38.1413 123.79 37.5433 124.084 36.85C124.05 36.85 123.816 36.9713 123.382 37.214C122.949 37.4567 122.481 37.8293 121.978 38.332C121.164 39.112 120.427 39.8833 119.768 40.646C119.127 41.4087 118.468 42.258 117.792 43.194C117.411 43.7313 117.073 44.182 116.778 44.546C116.501 44.9273 116.258 45.1787 116.05 45.3C115.686 45.092 115.418 44.7973 115.244 44.416C115.071 44.052 114.941 43.6707 114.854 43.272C114.854 42.9427 114.898 42.5267 114.984 42.024C115.088 41.5213 115.218 40.9667 115.374 40.36C115.548 39.736 115.756 39.086 115.998 38.41C116.241 37.734 116.51 37.058 116.804 36.382C117.463 34.8567 118.061 33.6607 118.598 32.794C119.153 31.9273 119.5 31.4593 119.638 31.39ZM130.897 34.796C130.897 34.484 130.915 34.1893 130.949 33.912C131.001 33.6347 131.097 33.4007 131.235 33.21C131.374 33.002 131.565 32.846 131.807 32.742C132.05 32.6207 132.371 32.56 132.769 32.56C133.012 32.56 133.281 32.586 133.575 32.638C133.887 32.69 134.113 32.7853 134.251 32.924C134.182 33.2187 134.121 33.4787 134.069 33.704C134.035 33.9293 134 34.1807 133.965 34.458C133.948 34.718 133.931 35.0387 133.913 35.42C133.896 35.784 133.879 36.2607 133.861 36.85C133.827 38.0287 133.766 39.086 133.679 40.022C133.61 40.9407 133.437 41.8593 133.159 42.778C133.159 42.8473 133.185 42.882 133.237 42.882C133.497 42.6913 133.792 42.414 134.121 42.05C134.451 41.686 134.797 41.2787 135.161 40.828C135.525 40.36 135.889 39.866 136.253 39.346C136.617 38.826 136.955 38.3147 137.267 37.812C137.683 37.084 138.143 36.174 138.645 35.082C139.148 33.99 139.564 32.82 139.893 31.572C139.997 31.572 140.127 31.598 140.283 31.65C140.457 31.6847 140.621 31.7367 140.777 31.806C140.951 31.858 141.098 31.9187 141.219 31.988C141.358 32.0573 141.453 32.118 141.505 32.17C141.471 32.9153 141.289 33.678 140.959 34.458C140.647 35.238 140.266 35.992 139.815 36.72C139.365 37.448 138.888 38.1327 138.385 38.774C137.883 39.4153 137.423 39.97 137.007 40.438C136.175 41.4087 135.335 42.2753 134.485 43.038C133.653 43.8007 132.657 44.5373 131.495 45.248C131.045 45.0747 130.689 44.8407 130.429 44.546C130.169 44.2687 130.039 43.974 130.039 43.662C130.039 43.454 130.083 43.22 130.169 42.96C130.273 42.6827 130.386 42.336 130.507 41.92C130.629 41.4867 130.733 40.9493 130.819 40.308C130.923 39.6667 130.975 38.852 130.975 37.864C130.975 37.292 130.958 36.72 130.923 36.148C130.906 35.5587 130.897 35.108 130.897 34.796ZM150.092 33.496C150.265 33.496 150.464 33.5307 150.69 33.6C150.932 33.652 151.149 33.73 151.34 33.834C151.53 33.9207 151.686 34.016 151.808 34.12C151.946 34.224 152.016 34.3193 152.016 34.406C151.669 35.134 151.348 35.8707 151.054 36.616C150.759 37.344 150.508 38.046 150.3 38.722C150.092 39.398 149.927 40.0307 149.806 40.62C149.702 41.2093 149.65 41.7207 149.65 42.154C149.65 42.6393 149.702 43.0467 149.806 43.376C149.91 43.688 150.083 43.9133 150.326 44.052C150.118 44.1907 149.849 44.3033 149.52 44.39C149.19 44.4767 148.896 44.52 148.636 44.52C147.7 44.52 147.232 43.8787 147.232 42.596C147.232 41.608 147.561 40.256 148.22 38.54C147.873 39.3373 147.474 40.0913 147.024 40.802C146.573 41.4953 146.114 42.1107 145.646 42.648C145.178 43.1853 144.701 43.6273 144.216 43.974C143.748 44.3033 143.314 44.5027 142.916 44.572C142.274 44.5373 141.754 44.234 141.356 43.662C140.957 43.0727 140.758 42.3273 140.758 41.426C140.758 40.4553 140.966 39.4327 141.382 38.358C141.798 37.2833 142.326 36.2867 142.968 35.368C143.626 34.4493 144.337 33.6867 145.1 33.08C145.862 32.456 146.599 32.1267 147.31 32.092C147.483 32.144 147.674 32.248 147.882 32.404C148.107 32.56 148.315 32.742 148.506 32.95C148.714 33.158 148.887 33.3747 149.026 33.6C149.164 33.808 149.242 33.99 149.26 34.146C148.566 34.25 147.847 34.588 147.102 35.16C146.374 35.732 145.706 36.4253 145.1 37.24C144.51 38.0373 144.025 38.8953 143.644 39.814C143.262 40.7327 143.072 41.5907 143.072 42.388C143.072 42.7173 143.193 42.9253 143.436 43.012C143.938 42.908 144.519 42.4833 145.178 41.738C145.836 40.9753 146.634 39.8053 147.57 38.228C147.743 37.916 147.934 37.5693 148.142 37.188C148.367 36.8067 148.592 36.408 148.818 35.992C149.043 35.576 149.26 35.16 149.468 34.744C149.693 34.3107 149.901 33.8947 150.092 33.496Z" fill="black"/>
<defs>
<clipPath id="clip0_25_14">
<rect width="70" height="70" fill="white"/>
</clipPath>
</defs>
</svg>
