<svg width="65" height="65" viewBox="0 0 65 65" fill="none" xmlns="http://www.w3.org/2000/svg">
<path fill-rule="evenodd" clip-rule="evenodd" d="M32.5 9.47913C32.8592 9.47913 33.2036 9.6218 33.4575 9.87575C33.7115 10.1297 33.8542 10.4741 33.8542 10.8333V12.7725H34.6775C37.0392 12.7725 38.9323 14.7008 38.9323 17.0543C38.9323 17.4135 38.7896 17.7579 38.5357 18.0119C38.2817 18.2658 37.9373 18.4085 37.5781 18.4085C37.219 18.4085 36.8745 18.2658 36.6206 18.0119C36.3666 17.7579 36.224 17.4135 36.224 17.0543C36.2269 16.6411 36.0656 16.2435 35.7757 15.949C35.4857 15.6545 35.0908 15.4871 34.6775 15.4835H30.3225C29.5235 15.4835 28.9792 16.0252 28.8492 16.8485C28.7138 17.6881 29.0767 18.4085 29.8079 18.6712L36.1996 20.9733C40.4327 22.5008 39.3602 28.841 34.8129 28.841H33.9219V31.1458C33.9219 31.5049 33.7792 31.8494 33.5253 32.1033C33.2713 32.3573 32.9269 32.5 32.5677 32.5C32.2086 32.5 31.8641 32.3573 31.6102 32.1033C31.3562 31.8494 31.2135 31.5049 31.2135 31.1458V28.841H30.3225C29.762 28.8392 29.2073 28.7271 28.6901 28.5109C28.1729 28.2948 27.7034 27.9789 27.3083 27.5813C26.9132 27.1837 26.6003 26.7121 26.3874 26.1936C26.1746 25.675 26.0659 25.1197 26.0677 24.5591C26.0677 24.2 26.2104 23.8555 26.4643 23.6016C26.7183 23.3476 27.0627 23.205 27.4219 23.205C27.781 23.205 28.1255 23.3476 28.3794 23.6016C28.6334 23.8555 28.776 24.2 28.776 24.5591C28.776 25.4393 29.4802 26.13 30.3225 26.13H34.8129C36.3133 26.13 36.6708 24.0229 35.2842 23.5245L28.8898 21.2198C26.6527 20.4127 25.8863 18.2243 26.1733 16.4206C26.4631 14.6033 27.8931 12.7725 30.3225 12.7725H31.1458V10.8333C31.1458 10.4741 31.2885 10.1297 31.5425 9.87575C31.7964 9.6218 32.1409 9.47913 32.5 9.47913ZM20.3233 37.2558C21.6721 36.4108 23.3296 35.8854 25.5477 35.8854H33.8542C35.1542 35.8854 36.2646 36.2916 37.0581 37.0283C37.4339 37.374 37.7338 37.794 37.939 38.2615C38.1441 38.7291 38.25 39.2342 38.25 39.7448C38.25 40.2554 38.1441 40.7604 37.939 41.228C37.7338 41.6955 37.4339 42.1155 37.0581 42.4612C36.2619 43.1979 35.1542 43.6041 33.8542 43.6041H28.4375C27.7333 43.6041 27.3325 43.8289 27.1077 44.051C26.9908 44.1684 26.8986 44.3079 26.8362 44.4613C26.7739 44.6148 26.7428 44.7791 26.7448 44.9448C26.7448 45.2833 26.8721 45.6056 27.1077 45.8385C27.3325 46.0633 27.736 46.2881 28.4375 46.2881H36.5652C38.8619 46.2881 41.0231 45.4864 43.1627 44.2704C44.7958 43.3441 46.3315 42.231 47.886 41.1016C48.3952 40.7315 48.908 40.3632 49.4244 39.9966L49.5192 39.9343C51.5721 38.7264 53.7279 39.4793 54.8004 40.9743C55.3313 41.7137 55.6211 42.6643 55.4883 43.6556C55.3583 44.636 54.8356 45.5487 53.95 46.2664L53.9121 46.307L53.6142 46.605C52.064 48.1342 50.3979 49.5413 48.6308 50.8137C45.4756 53.0806 41.0665 55.5208 36.5652 55.5208H10.8333C10.4742 55.5208 10.1298 55.3781 9.8758 55.1242C9.62184 54.8702 9.47917 54.5258 9.47917 54.1666V44.6875C9.47917 44.3283 9.62184 43.9839 9.8758 43.7299C10.1298 43.476 10.4742 43.3333 10.8333 43.3333C12.6371 43.3333 13.826 42.927 14.7333 42.3691C15.6813 41.7895 16.4017 41.0068 17.2521 40.0589L17.3198 39.9831C18.1188 39.0893 19.0531 38.0493 20.3233 37.2558ZM52.046 44.3381L52.2031 44.1973C52.6446 43.8533 52.7719 43.5283 52.8044 43.3008C52.8311 43.0351 52.7588 42.7689 52.6013 42.5533C52.2763 42.101 51.656 41.8437 50.9356 42.2445C50.4915 42.5605 50.0347 42.8891 49.5652 43.2304C47.9863 44.3787 46.2773 45.6164 44.5006 46.6266C42.1444 47.9645 39.5119 48.9964 36.5652 48.9964H28.4375C27.1104 48.9964 25.9892 48.5468 25.1956 47.7587C24.8265 47.3898 24.534 46.9515 24.335 46.469C24.1361 45.9865 24.0346 45.4694 24.0365 44.9475C24.0365 43.9345 24.4156 42.9081 25.1956 42.1308C25.9892 41.3454 27.1077 40.8958 28.4375 40.8958H33.8569C34.5881 40.8958 35.0025 40.6764 35.2219 40.4733C35.3244 40.3816 35.4063 40.2693 35.4623 40.1438C35.5183 40.0182 35.5471 39.8822 35.5469 39.7448C35.5471 39.6073 35.5183 39.4713 35.4623 39.3457C35.4063 39.2202 35.3244 39.1079 35.2219 39.0162C35.0025 38.8131 34.5881 38.5937 33.8569 38.5937H25.5477C23.7954 38.5937 22.6444 39 21.756 39.5525C20.8298 40.132 20.1229 40.9148 19.2644 41.8681L19.2454 41.8898C18.4302 42.8025 17.4715 43.8668 16.1498 44.6793C14.9454 45.4081 13.5899 45.8509 12.1875 45.9739V52.8125H36.5652C40.1863 52.8125 44.0131 50.8002 47.0573 48.6145C48.8056 47.3532 50.4478 45.9511 51.9675 44.422L52.0298 44.357L52.0433 44.3408L52.046 44.3381Z" fill="black"/>
</svg>
