<svg width="151" height="70" viewBox="0 0 151 70" fill="none" xmlns="http://www.w3.org/2000/svg">
<path opacity="0.6" d="M34.0287 5.83331H24.3046C21.7259 5.83331 19.2529 6.85767 17.4296 8.68103C15.6062 10.5044 14.5818 12.9774 14.5818 15.556C14.5818 18.1346 15.6062 20.6077 17.4296 22.431C19.2529 24.2544 21.7259 25.2787 24.3046 25.2787H34.0287V5.83331Z" fill="black"/>
<path opacity="0.4" d="M34.0287 25.2787H24.3046C21.7263 25.2787 19.2537 26.3029 17.4306 28.126C15.6075 29.9491 14.5833 32.4218 14.5833 35C14.5833 37.5782 15.6075 40.0509 17.4306 41.874C19.2537 43.697 21.7263 44.7212 24.3046 44.7212H34.0287V25.2787Z" fill="black"/>
<path d="M53.4712 35C53.4712 37.5786 52.4469 40.0516 50.6235 41.875C48.8002 43.6983 46.3271 44.7227 43.7485 44.7227C41.1699 44.7227 38.6969 43.6983 36.8735 41.875C35.0502 40.0516 34.0258 37.5786 34.0258 35C34.0258 32.4214 35.0502 29.9484 36.8735 28.125C38.6969 26.3016 41.1699 25.2773 43.7485 25.2773C46.3271 25.2773 48.8002 26.3016 50.6235 28.125C52.4469 29.9484 53.4712 32.4214 53.4712 35Z" fill="black"/>
<path opacity="0.2" d="M24.3046 44.7242H34.0287V54.4454C34.0282 56.3679 33.4576 58.247 32.3892 59.8452C31.3208 61.4434 29.8025 62.6889 28.0263 63.4243C26.2501 64.1597 24.2957 64.352 22.4103 63.9768C20.5248 63.6016 18.7929 62.6758 17.4335 61.3165C16.0742 59.9571 15.1484 58.2252 14.7732 56.3397C14.398 54.4543 14.5903 52.4999 15.3257 50.7237C16.0611 48.9475 17.3066 47.4292 18.9048 46.3608C20.503 45.2924 22.3821 44.7247 24.3046 44.7242Z" fill="black"/>
<path opacity="0.8" d="M34.0258 5.83331H43.7471C46.3257 5.83331 48.7987 6.85767 50.6221 8.68103C52.4454 10.5044 53.4698 12.9774 53.4698 15.556C53.4698 18.1346 52.4454 20.6077 50.6221 22.431C48.7987 24.2544 46.3257 25.2787 43.7471 25.2787H34.0258V5.83331Z" fill="black"/>
<path d="M98.52 33.158C99.0747 33.158 99.508 33.314 99.82 33.626C100.149 33.938 100.314 34.3713 100.314 34.926C100.314 35.0647 100.305 35.212 100.288 35.368C100.271 35.5067 100.236 35.628 100.184 35.732C99.9587 35.6973 99.7073 35.6713 99.43 35.654C99.1527 35.6193 98.8233 35.602 98.442 35.602C97.662 35.602 96.882 35.6713 96.102 35.81C95.322 35.9487 94.5767 36.0613 93.866 36.148C93.086 37.9853 92.4447 39.71 91.942 41.322C91.4393 42.934 91.0493 44.5287 90.772 46.106C90.1827 45.9673 89.6627 45.716 89.212 45.352C88.7613 44.988 88.3367 44.4767 87.938 43.818C88.0593 43.5407 88.2067 43.2113 88.38 42.83C88.5533 42.4313 88.7613 41.9373 89.004 41.348C89.2467 40.7413 89.5327 40.0133 89.862 39.164C90.2087 38.2973 90.616 37.266 91.084 36.07C90.356 35.8273 89.8793 35.4027 89.654 34.796C89.7407 34.7093 89.9833 34.614 90.382 34.51C90.7807 34.3887 91.266 34.2587 91.838 34.12C92.098 33.444 92.3233 32.846 92.514 32.326C92.7047 31.7887 92.878 31.286 93.034 30.818C93.19 30.3327 93.3287 29.8647 93.45 29.414C93.5887 28.946 93.71 28.452 93.814 27.932H93.684C93.0253 27.932 92.488 27.776 92.072 27.464C91.6733 27.152 91.474 26.7447 91.474 26.242C91.474 26.1033 91.4913 25.9387 91.526 25.748C91.578 25.5573 91.6387 25.3927 91.708 25.254C92.0373 25.306 92.358 25.3407 92.67 25.358C92.9993 25.3753 93.424 25.384 93.944 25.384C95.036 25.384 96.0587 25.358 97.012 25.306C97.9653 25.2367 98.8233 25.1673 99.586 25.098C100.366 25.0287 101.033 24.968 101.588 24.916C102.143 24.8467 102.567 24.812 102.862 24.812C103.261 24.812 103.616 25.02 103.928 25.436C104.24 25.852 104.483 26.4413 104.656 27.204C104.101 27.152 103.651 27.1173 103.304 27.1C102.975 27.0827 102.68 27.074 102.42 27.074C101.536 27.074 100.721 27.1173 99.976 27.204C99.248 27.2733 98.5547 27.36 97.896 27.464C97.792 27.62 97.6707 27.8193 97.532 28.062C97.4107 28.3047 97.246 28.6513 97.038 29.102C96.83 29.5353 96.5613 30.1073 96.232 30.818C95.92 31.5287 95.5213 32.43 95.036 33.522C95.712 33.418 96.3533 33.3313 96.96 33.262C97.584 33.1927 98.104 33.158 98.52 33.158ZM101.64 42.258C101.64 42.102 101.648 41.9113 101.666 41.686C101.7 41.4433 101.752 41.1313 101.822 40.75C101.891 40.3513 101.978 39.8747 102.082 39.32C102.203 38.7653 102.35 38.098 102.524 37.318C102.558 37.1447 102.636 36.8673 102.758 36.486C102.879 36.1047 103.035 35.706 103.226 35.29C103.434 34.8567 103.676 34.4407 103.954 34.042C104.248 33.6433 104.595 33.3487 104.994 33.158C105.288 33.2273 105.678 33.4093 106.164 33.704C106.649 33.9813 107.065 34.3713 107.412 34.874C107.013 35.3247 106.675 35.7753 106.398 36.226C106.138 36.6767 105.895 37.1447 105.67 37.63C105.462 38.1153 105.262 38.618 105.072 39.138C104.898 39.658 104.699 40.204 104.474 40.776C104.283 41.2613 104.11 41.764 103.954 42.284C103.798 42.7867 103.711 43.2287 103.694 43.61C103.694 43.922 103.685 44.1387 103.668 44.26C103.668 44.3987 103.624 44.468 103.538 44.468C103.468 44.468 103.33 44.4247 103.122 44.338C102.914 44.2513 102.697 44.1213 102.472 43.948C102.264 43.7573 102.073 43.5233 101.9 43.246C101.726 42.9687 101.64 42.6393 101.64 42.258ZM106.606 30.974C106.606 30.87 106.632 30.714 106.684 30.506C106.597 30.4193 106.519 30.2893 106.45 30.116C106.398 29.9427 106.372 29.7867 106.372 29.648C106.372 29.492 106.389 29.284 106.424 29.024C106.476 28.7467 106.536 28.452 106.606 28.14C106.675 27.828 106.762 27.5073 106.866 27.178C106.97 26.8313 107.074 26.5193 107.178 26.242C107.386 26.242 107.637 26.3027 107.932 26.424C108.244 26.528 108.556 26.6753 108.868 26.866C109.18 27.0393 109.466 27.2387 109.726 27.464C109.986 27.672 110.185 27.8713 110.324 28.062C110.133 28.2527 109.882 28.5213 109.57 28.868C109.258 29.1973 108.954 29.5527 108.66 29.934C108.365 30.298 108.096 30.6447 107.854 30.974C107.611 31.3033 107.455 31.5373 107.386 31.676C107.178 31.6413 106.996 31.5547 106.84 31.416C106.684 31.26 106.606 31.1127 106.606 30.974ZM102.506 51.748C102.506 51.644 102.541 51.5487 102.61 51.462C102.68 51.3753 102.758 51.2887 102.844 51.202C103.052 51.3927 103.234 51.54 103.39 51.644C103.529 51.748 103.668 51.8347 103.806 51.904C103.928 51.9733 104.058 52.0167 104.196 52.034C104.335 52.0513 104.5 52.06 104.69 52.06C105.592 52.06 106.45 51.8173 107.264 51.332C108.079 50.864 108.842 50.1793 109.552 49.278C110.28 48.3767 110.939 47.276 111.528 45.976C112.118 44.676 112.638 43.2027 113.088 41.556C112.88 41.764 112.62 41.998 112.308 42.258C112.014 42.5007 111.702 42.7347 111.372 42.96C111.043 43.1853 110.714 43.3933 110.384 43.584C110.072 43.7747 109.804 43.9133 109.578 44C109.284 43.948 109.006 43.8267 108.746 43.636C108.504 43.428 108.287 43.1767 108.096 42.882C107.906 42.5873 107.758 42.258 107.654 41.894C107.55 41.5127 107.498 41.114 107.498 40.698C107.498 40.022 107.62 39.3287 107.862 38.618C108.122 37.9073 108.46 37.214 108.876 36.538C109.292 35.8447 109.778 35.1947 110.332 34.588C110.904 33.9813 111.502 33.4527 112.126 33.002C112.768 32.5513 113.409 32.196 114.05 31.936C114.709 31.6587 115.35 31.52 115.974 31.52C116.581 31.52 117.032 31.65 117.326 31.91C117.638 32.1527 117.864 32.5773 118.002 33.184C117.812 33.08 117.569 33.028 117.274 33.028C116.858 33.028 116.373 33.1927 115.818 33.522C115.281 33.8513 114.726 34.2847 114.154 34.822C113.6 35.342 113.045 35.9487 112.49 36.642C111.936 37.318 111.442 38.0113 111.008 38.722C110.592 39.4327 110.246 40.126 109.968 40.802C109.708 41.478 109.578 42.0847 109.578 42.622C109.578 42.7433 109.587 42.8213 109.604 42.856C109.622 42.8733 109.648 42.882 109.682 42.882C109.838 42.882 110.046 42.7953 110.306 42.622C110.584 42.4487 110.887 42.232 111.216 41.972C111.563 41.6947 111.918 41.3827 112.282 41.036C112.646 40.672 112.993 40.308 113.322 39.944C114.068 39.112 114.744 38.1847 115.35 37.162C115.974 36.122 116.468 35.1167 116.832 34.146C117.3 34.1807 117.716 34.2587 118.08 34.38C118.444 34.5013 118.696 34.6313 118.834 34.77C118.245 36.122 117.768 37.2573 117.404 38.176C117.058 39.0947 116.754 39.9093 116.494 40.62C116.026 41.868 115.584 43.0033 115.168 44.026C114.77 45.066 114.354 46.0193 113.92 46.886C113.504 47.77 113.045 48.5847 112.542 49.33C112.057 50.0927 111.502 50.8207 110.878 51.514C110.584 51.8433 110.246 52.1293 109.864 52.372C109.5 52.632 109.119 52.8487 108.72 53.022C108.339 53.1953 107.958 53.3253 107.576 53.412C107.212 53.4987 106.874 53.542 106.562 53.542C106.146 53.542 105.722 53.49 105.288 53.386C104.855 53.2993 104.456 53.1693 104.092 52.996C103.711 52.84 103.382 52.6493 103.104 52.424C102.827 52.216 102.628 51.9907 102.506 51.748ZM134.491 36.018C134.214 36.0353 133.876 36.2173 133.477 36.564C133.079 36.8933 132.645 37.3267 132.177 37.864C131.727 38.384 131.25 38.9647 130.747 39.606C130.262 40.2473 129.785 40.8887 129.317 41.53C128.867 42.154 128.442 42.7433 128.043 43.298C127.645 43.8527 127.307 44.2947 127.029 44.624C126.648 44.468 126.319 44.2427 126.041 43.948C125.764 43.636 125.565 43.2547 125.443 42.804C125.53 42.2667 125.651 41.712 125.807 41.14C125.963 40.5507 126.163 39.944 126.405 39.32C126.665 38.696 126.977 38.046 127.341 37.37C127.723 36.6767 128.182 35.9487 128.719 35.186C128.459 35.2033 128.104 35.394 127.653 35.758C127.203 36.1047 126.717 36.564 126.197 37.136C125.677 37.6907 125.14 38.3233 124.585 39.034C124.031 39.7273 123.511 40.412 123.025 41.088C122.384 41.9893 121.847 42.778 121.413 43.454C120.997 44.13 120.694 44.5287 120.503 44.65C120.053 44.3207 119.741 43.9653 119.567 43.584C119.394 43.2027 119.264 42.778 119.177 42.31C119.195 41.894 119.255 41.374 119.359 40.75C119.481 40.126 119.645 39.4847 119.853 38.826C120.252 37.5607 120.763 36.304 121.387 35.056C122.029 33.808 122.644 32.664 123.233 31.624C123.719 31.728 124.152 31.8927 124.533 32.118C124.932 32.3433 125.348 32.6727 125.781 33.106C125.608 33.6433 125.339 34.2153 124.975 34.822C124.611 35.4113 124.23 36.0353 123.831 36.694C123.433 37.3527 123.069 38.0287 122.739 38.722C122.41 39.4153 122.193 40.1173 122.089 40.828C122.575 40.1347 123.147 39.3373 123.805 38.436C124.481 37.5347 125.166 36.6853 125.859 35.888C126.57 35.0907 127.272 34.4147 127.965 33.86C128.659 33.3053 129.283 33.028 129.837 33.028C130.045 33.028 130.271 33.0627 130.513 33.132C130.756 33.2013 130.981 33.288 131.189 33.392C131.397 33.496 131.571 33.6 131.709 33.704C131.848 33.7907 131.926 33.86 131.943 33.912C131.857 34.2587 131.649 34.7353 131.319 35.342C131.007 35.9313 130.669 36.5553 130.305 37.214C129.941 37.8727 129.603 38.514 129.291 39.138C128.979 39.7447 128.797 40.23 128.745 40.594C129.595 39.4327 130.392 38.384 131.137 37.448C131.883 36.4947 132.585 35.68 133.243 35.004C133.902 34.328 134.509 33.808 135.063 33.444C135.635 33.08 136.173 32.898 136.675 32.898C137.022 32.898 137.343 32.9933 137.637 33.184C137.949 33.3573 138.166 33.6173 138.287 33.964C138.131 34.484 137.871 35.108 137.507 35.836C137.161 36.564 136.805 37.3353 136.441 38.15C136.077 38.9473 135.748 39.736 135.453 40.516C135.176 41.296 135.037 41.998 135.037 42.622C135.037 42.986 135.089 43.2287 135.193 43.35C135.297 43.454 135.445 43.506 135.635 43.506C135.843 43.506 136.034 43.4713 136.207 43.402C136.398 43.3153 136.537 43.272 136.623 43.272C136.727 43.3413 136.788 43.428 136.805 43.532C136.823 43.636 136.831 43.7313 136.831 43.818C136.485 44.0953 136.129 44.3207 135.765 44.494C135.401 44.6847 134.994 44.78 134.543 44.78C134.127 44.78 133.781 44.7107 133.503 44.572C133.243 44.4333 133.027 44.2427 132.853 44C132.68 43.7573 132.559 43.48 132.489 43.168C132.42 42.856 132.385 42.518 132.385 42.154C132.385 41.5647 132.463 40.984 132.619 40.412C132.775 39.8227 132.957 39.268 133.165 38.748C133.391 38.2107 133.625 37.7167 133.867 37.266C134.11 36.798 134.318 36.382 134.491 36.018ZM148.314 33.496C148.488 33.496 148.687 33.5307 148.912 33.6C149.155 33.652 149.372 33.73 149.562 33.834C149.753 33.9207 149.909 34.016 150.03 34.12C150.169 34.224 150.238 34.3193 150.238 34.406C149.892 35.134 149.571 35.8707 149.276 36.616C148.982 37.344 148.73 38.046 148.522 38.722C148.314 39.398 148.15 40.0307 148.028 40.62C147.924 41.2093 147.872 41.7207 147.872 42.154C147.872 42.6393 147.924 43.0467 148.028 43.376C148.132 43.688 148.306 43.9133 148.548 44.052C148.34 44.1907 148.072 44.3033 147.742 44.39C147.413 44.4767 147.118 44.52 146.858 44.52C145.922 44.52 145.454 43.8787 145.454 42.596C145.454 41.608 145.784 40.256 146.442 38.54C146.096 39.3373 145.697 40.0913 145.246 40.802C144.796 41.4953 144.336 42.1107 143.868 42.648C143.4 43.1853 142.924 43.6273 142.438 43.974C141.97 44.3033 141.537 44.5027 141.138 44.572C140.497 44.5373 139.977 44.234 139.578 43.662C139.18 43.0727 138.98 42.3273 138.98 41.426C138.98 40.4553 139.188 39.4327 139.604 38.358C140.02 37.2833 140.549 36.2867 141.19 35.368C141.849 34.4493 142.56 33.6867 143.322 33.08C144.085 32.456 144.822 32.1267 145.532 32.092C145.706 32.144 145.896 32.248 146.104 32.404C146.33 32.56 146.538 32.742 146.728 32.95C146.936 33.158 147.11 33.3747 147.248 33.6C147.387 33.808 147.465 33.99 147.482 34.146C146.789 34.25 146.07 34.588 145.324 35.16C144.596 35.732 143.929 36.4253 143.322 37.24C142.733 38.0373 142.248 38.8953 141.866 39.814C141.485 40.7327 141.294 41.5907 141.294 42.388C141.294 42.7173 141.416 42.9253 141.658 43.012C142.161 42.908 142.742 42.4833 143.4 41.738C144.059 40.9753 144.856 39.8053 145.792 38.228C145.966 37.916 146.156 37.5693 146.364 37.188C146.59 36.8067 146.815 36.408 147.04 35.992C147.266 35.576 147.482 35.16 147.69 34.744C147.916 34.3107 148.124 33.8947 148.314 33.496Z" fill="black"/>
</svg>
