<svg width="161" height="161" viewBox="0 0 161 161" fill="none" xmlns="http://www.w3.org/2000/svg">
<circle cx="80.5" cy="80.5" r="80.5" fill="url(#paint0_linear_36_54)"/>
<g clip-path="url(#clip0_36_54)">
<path d="M74.2148 54.832L67.2285 61.8184C65.1367 62.3926 63.1953 63.4453 61.5547 64.8945L57.918 68.1348C56.5234 69.3789 54.7051 70.0625 52.832 70.0625H50.125V87.5625C52.9141 87.6445 55.5664 88.7793 57.5488 90.7617L62.416 95.6289L63.373 96.5859L67.0645 100.277C67.9121 101.125 69.3066 101.125 70.1543 100.277C70.3867 100.045 70.5645 99.7715 70.6602 99.4844C71.043 98.4316 71.9316 97.6387 73.0254 97.3926C74.1191 97.1465 75.2676 97.4746 76.0605 98.2812L77.5371 99.7305C79.123 101.316 81.6934 101.316 83.2656 99.7305C84.0039 98.9922 84.4004 98.0488 84.4414 97.0781C84.4961 95.875 85.207 94.8086 86.3008 94.2891C87.3945 93.7695 88.666 93.8789 89.6367 94.5762C90.9219 95.4922 92.7129 95.3691 93.8613 94.2207C95.1465 92.9355 95.1465 90.8574 93.8613 89.5859L83.498 79.2227L78.6035 83.7344C74.8711 87.1797 69.1426 87.2344 65.3418 83.8574C61.0078 80.002 60.9121 73.2754 65.123 69.2969L74.707 60.2461C78.4531 56.7187 83.4023 54.75 88.5566 54.75C93.4922 54.75 98.2637 56.5684 101.941 59.8359L106.057 63.5H122.312C123.516 63.5 124.5 64.4844 124.5 65.6875V94.125C124.5 96.5449 122.545 98.5 120.125 98.5H115.75C114.137 98.5 112.715 97.625 111.963 96.3125H100.355C99.8906 97.2285 99.2754 98.1035 98.5098 98.8691C96.1719 101.207 92.9316 102.123 89.8965 101.617C89.4043 102.615 88.7344 103.545 87.9004 104.379C84.168 108.111 78.3301 108.48 74.1738 105.486C70.7422 108.33 65.6289 108.152 62.416 104.926L58.7383 101.234L57.7812 100.277L52.9141 95.4102C52.1621 94.6582 51.1777 94.2207 50.125 94.1387C50.125 96.5449 48.1562 98.5 45.75 98.5H41.375C38.9551 98.5 37 96.5449 37 94.125V65.6875C37 64.4844 37.9844 63.5 39.1875 63.5H52.832C53.1055 63.5 53.3652 63.4043 53.5566 63.2266L57.1797 60C60.9941 56.623 65.9023 54.75 71.002 54.75H72.4102C73.0117 54.75 73.627 54.7773 74.2148 54.832ZM111.375 89.75V70.0625H104.812C104.006 70.0625 103.227 69.7617 102.639 69.2285L97.5938 64.7441C95.1055 62.5293 91.8926 61.3125 88.5566 61.3125C85.084 61.3125 81.748 62.6387 79.2188 65.0176L69.6348 74.0684C68.2266 75.4082 68.2539 77.6641 69.7031 78.9492C70.9746 80.084 72.9023 80.0566 74.1465 78.9082L83.9766 69.8301C85.3027 68.5996 87.3809 68.6816 88.6113 70.0215C89.8418 71.3613 89.7598 73.4258 88.4199 74.6562L88.3105 74.7656L98.4824 84.9375C99.8496 86.3047 100.738 87.9863 101.135 89.7363H111.361L111.375 89.75ZM45.75 91.9375C45.75 91.3573 45.5195 90.8009 45.1093 90.3907C44.6991 89.9805 44.1427 89.75 43.5625 89.75C42.9823 89.75 42.4259 89.9805 42.0157 90.3907C41.6055 90.8009 41.375 91.3573 41.375 91.9375C41.375 92.5177 41.6055 93.0741 42.0157 93.4843C42.4259 93.8945 42.9823 94.125 43.5625 94.125C44.1427 94.125 44.6991 93.8945 45.1093 93.4843C45.5195 93.0741 45.75 92.5177 45.75 91.9375ZM117.938 94.125C118.518 94.125 119.074 93.8945 119.484 93.4843C119.895 93.0741 120.125 92.5177 120.125 91.9375C120.125 91.3573 119.895 90.8009 119.484 90.3907C119.074 89.9805 118.518 89.75 117.938 89.75C117.357 89.75 116.801 89.9805 116.391 90.3907C115.98 90.8009 115.75 91.3573 115.75 91.9375C115.75 92.5177 115.98 93.0741 116.391 93.4843C116.801 93.8945 117.357 94.125 117.938 94.125Z" fill="black"/>
</g>
<defs>
<linearGradient id="paint0_linear_36_54" x1="81" y1="145.5" x2="81" y2="-2.7294e-06" gradientUnits="userSpaceOnUse">
<stop stop-color="#FBFBFA"/>
<stop offset="1" stop-color="#D6D6D5"/>
</linearGradient>
<clipPath id="clip0_36_54">
<rect width="87.5" height="70" fill="white" transform="translate(37 46)"/>
</clipPath>
</defs>
</svg>
