<svg xmlns="http://www.w3.org/2000/svg" version="1.1" xmlns:xlink="http://www.w3.org/1999/xlink" xmlns:svgjs="http://svgjs.dev/svgjs" width="2000" height="1146" viewBox="0 0 2000 1146"><g transform="matrix(1,0,0,1,-1.2121212121212466,-1.6635939000678945)"><svg viewBox="0 0 396 227" data-background-color="#ffffff" preserveAspectRatio="xMidYMid meet" height="1146" width="2000" xmlns="http://www.w3.org/2000/svg" xmlns:xlink="http://www.w3.org/1999/xlink"><g id="tight-bounds" transform="matrix(1,0,0,1,0.2400000000000091,0.3295251442542906)"><svg viewBox="0 0 395.52 226.34094971149142" height="226.34094971149142" width="395.52"><g><svg viewBox="0 0 395.52 226.34094971149142" height="226.34094971149142" width="395.52"><g><svg viewBox="0 0 395.52 226.34094971149142" height="226.34094971149142" width="395.52"><g id="textblocktransform"><svg viewBox="0 0 395.52 226.34094971149142" height="226.34094971149142" width="395.52" id="textblock"><g><rect width="395.52" height="157.9233271393643" fill="none" stroke-width="9.018103199999999" stroke="#000000" data-fill-palette-color="none" data-stroke-palette-color="tertiary"></rect><rect width="395.52" height="68.41762257212714" y="157.9233271393643" fill="#000000" data-fill-palette-color="tertiary"></rect></g><g><svg viewBox="0 0 395.52 157.9233271393643" height="157.9233271393643" width="395.52"><g transform="matrix(1,0,0,1,23.607599999999998,23.60759999999999)"><svg width="348.3048" viewBox="1.23 -31.95 102.24 32.5" height="110.70812713936431" data-palette-color="#000000"><path d="M27.28-31.95L17.57 0 10.95 0 1.23-31.95 5.58-31.95 13.95-3.15 14.55-3.15 22.95-31.95 27.28-31.95ZM42.05 0.55L42.05 0.55Q36.47 0.55 33.65-2.18 30.82-4.9 30.82-9.98L30.82-9.98 30.82-14.33Q30.82-19.48 33.45-22.26 36.07-25.05 41.12-25.05L41.12-25.05Q44.52-25.05 46.8-23.79 49.07-22.53 50.22-20.2 51.37-17.88 51.37-14.65L51.37-14.65 51.37-13.75Q51.37-12.95 51.31-12.15 51.25-11.35 51.15-10.58L51.15-10.58 47.42-10.58Q47.47-11.78 47.48-12.85 47.5-13.93 47.5-14.83L47.5-14.83Q47.5-17.05 46.78-18.59 46.07-20.13 44.66-20.94 43.25-21.75 41.12-21.75L41.12-21.75Q37.97-21.75 36.4-19.93 34.82-18.1 34.82-14.7L34.82-14.7 34.82-12.38 34.85-11.88 34.85-9.55Q34.85-8.03 35.3-6.8 35.75-5.58 36.71-4.69 37.67-3.8 39.16-3.34 40.65-2.88 42.7-2.88L42.7-2.88Q45.07-2.88 47.12-3.5 49.17-4.13 50.97-5.2L50.97-5.2 50.6-1.7Q48.97-0.68 46.82-0.06 44.67 0.55 42.05 0.55ZM50.3-13.63L50.3-10.58 32.95-10.58 32.95-13.63 50.3-13.63ZM77.14-15.63L77.14 0 73.09 0 73.09-15.18Q73.09-17.15 72.56-18.57 72.02-20 70.81-20.79 69.59-21.58 67.5-21.58L67.5-21.58Q65.57-21.58 64.16-20.85 62.74-20.13 61.87-18.89 60.99-17.65 60.64-16.07L60.64-16.07 59.92-18.95 60.8-18.95Q61.2-20.6 62.2-21.96 63.2-23.33 64.88-24.14 66.57-24.95 69.02-24.95L69.02-24.95Q71.92-24.95 73.71-23.85 75.5-22.75 76.32-20.69 77.14-18.63 77.14-15.63L77.14-15.63ZM60.82-18.32L60.82 0 56.77 0 56.77-24.4 60.82-24.4 60.64-18.55 60.82-18.32ZM83.12-8.78L83.12-24.4 87.14-24.4 87.14-9.22Q87.14-7.3 87.68-5.86 88.22-4.42 89.44-3.64 90.67-2.85 92.74-2.85L92.74-2.85Q94.69-2.85 96.09-3.56 97.49-4.28 98.38-5.53 99.27-6.78 99.59-8.35L99.59-8.35 100.32-5.48 99.44-5.48Q99.07-3.83 98.07-2.46 97.07-1.1 95.38-0.29 93.69 0.53 91.22 0.53L91.22 0.53Q88.34 0.53 86.56-0.56 84.77-1.65 83.94-3.74 83.12-5.83 83.12-8.78L83.12-8.78ZM99.42-6.1L99.42-24.4 103.47-24.4 103.47 0 99.42 0 99.59-5.85 99.42-6.1Z" opacity="1" transform="matrix(1,0,0,1,0,0)" fill="#000000" class="wordmark-text-0" data-fill-palette-color="primary" id="text-0"></path></svg></g></svg></g></svg></g></svg></g></svg></g><defs></defs></svg><rect width="395.52" height="226.34094971149142" fill="none" stroke="none" visibility="hidden"></rect></g></svg></g></svg>