<svg width="178" height="70" viewBox="0 0 178 70" fill="none" xmlns="http://www.w3.org/2000/svg">
<path fill-rule="evenodd" clip-rule="evenodd" d="M64.1666 16.8146L45.5291 53.1854H28.0641L35.8341 38.1004H35.4754C29.0937 46.4508 19.4833 51.9312 5.83331 53.1883V38.325C5.83331 38.325 14.5891 37.8292 19.7108 32.3954H5.83331V16.8146H21.4171V29.6567H21.7758L28.1516 16.8146H39.9641V29.5662H40.3229L46.8766 16.8146H64.1666Z" fill="black"/>
<path d="M90.954 44.806C90.8673 44.0953 90.798 43.324 90.746 42.492C90.7113 41.6427 90.694 40.854 90.694 40.126C90.694 38.9647 90.7287 37.8553 90.798 36.798C90.8847 35.7233 90.98 34.6053 91.084 33.444C91.2053 32.2653 91.3353 30.9913 91.474 29.622C91.6127 28.2353 91.734 26.6407 91.838 24.838C92.0633 24.838 92.384 24.9073 92.8 25.046C93.2333 25.1673 93.6667 25.3147 94.1 25.488C94.5333 25.6613 94.9147 25.8433 95.244 26.034C95.5733 26.2073 95.764 26.3547 95.816 26.476C95.5213 27.152 95.2527 28.0447 95.01 29.154C94.7847 30.246 94.594 31.442 94.438 32.742C94.282 34.042 94.1607 35.3767 94.074 36.746C93.9873 38.1153 93.944 39.398 93.944 40.594C93.944 41.1487 93.9527 41.6947 93.97 42.232C93.9873 42.7693 94.0133 43.2633 94.048 43.714C94.412 43.1767 94.828 42.414 95.296 41.426C95.7813 40.4207 96.2753 39.3027 96.778 38.072C97.298 36.8413 97.8093 35.5587 98.312 34.224C98.832 32.872 99.3087 31.5893 99.742 30.376C100.175 29.1453 100.539 28.0447 100.834 27.074C101.146 26.086 101.363 25.3407 101.484 24.838C101.709 24.838 102.039 24.9073 102.472 25.046C102.923 25.1673 103.356 25.3147 103.772 25.488C104.205 25.6613 104.587 25.8433 104.916 26.034C105.245 26.2073 105.427 26.3547 105.462 26.476C105.167 27.152 104.899 28.0447 104.656 29.154C104.431 30.246 104.24 31.442 104.084 32.742C103.928 34.042 103.807 35.3767 103.72 36.746C103.633 38.1153 103.59 39.398 103.59 40.594C103.59 41.0967 103.59 41.5993 103.59 42.102C103.607 42.5873 103.633 43.0293 103.668 43.428C104.223 41.9893 104.795 40.568 105.384 39.164C105.991 37.7427 106.589 36.3907 107.178 35.108C107.767 33.808 108.339 32.6033 108.894 31.494C109.449 30.3673 109.96 29.3707 110.428 28.504C110.896 27.62 111.303 26.892 111.65 26.32C111.997 25.748 112.265 25.3667 112.456 25.176C112.855 25.228 113.262 25.3753 113.678 25.618C114.111 25.8433 114.493 26.138 114.822 26.502C114.319 26.9007 113.747 27.5593 113.106 28.478C112.465 29.3793 111.806 30.428 111.13 31.624C110.454 32.82 109.769 34.094 109.076 35.446C108.4 36.798 107.767 38.1153 107.178 39.398C106.589 40.6807 106.06 41.8767 105.592 42.986C105.141 44.0953 104.795 44.988 104.552 45.664C104.101 45.872 103.659 45.976 103.226 45.976C102.671 45.9067 102.143 45.768 101.64 45.56C101.155 45.352 100.808 45.1007 100.6 44.806C100.548 44.5287 100.505 44.208 100.47 43.844C100.435 43.4627 100.409 43.09 100.392 42.726C100.375 42.362 100.357 42.0153 100.34 41.686C100.34 41.3393 100.34 41.0447 100.34 40.802C100.34 39.2593 100.401 37.6907 100.522 36.096C100.643 34.484 100.791 32.7593 100.964 30.922C100.565 32.1007 100.123 33.366 99.638 34.718C99.1527 36.07 98.6413 37.4133 98.104 38.748C97.584 40.0653 97.0467 41.3307 96.492 42.544C95.9547 43.74 95.426 44.78 94.906 45.664C94.4553 45.872 94.0133 45.976 93.58 45.976C93.0253 45.9067 92.4967 45.768 91.994 45.56C91.5087 45.352 91.162 45.1007 90.954 44.806ZM120.342 33.236C120.272 34.3107 120.082 35.238 119.77 36.018C119.458 36.7807 119.007 37.4567 118.418 38.046C117.846 38.618 117.144 39.138 116.312 39.606C115.48 40.074 114.509 40.5247 113.4 40.958C113.4 41.062 113.391 41.1747 113.374 41.296C113.374 41.4 113.374 41.5127 113.374 41.634C113.374 41.8593 113.391 42.0933 113.426 42.336C113.46 42.5787 113.521 42.804 113.608 43.012C113.694 43.22 113.816 43.3933 113.972 43.532C114.128 43.6533 114.327 43.714 114.57 43.714C115.038 43.714 115.497 43.61 115.948 43.402C116.398 43.194 116.823 42.9427 117.222 42.648C117.638 42.336 118.019 42.0067 118.366 41.66C118.73 41.296 119.05 40.9667 119.328 40.672C119.501 40.828 119.648 40.9753 119.77 41.114C118.99 42.154 118.132 43.0207 117.196 43.714C116.277 44.39 115.402 44.8233 114.57 45.014C113.374 44.8753 112.438 44.442 111.762 43.714C111.103 42.9687 110.774 42.076 110.774 41.036C110.774 40.3253 110.869 39.606 111.06 38.878C111.268 38.1327 111.545 37.422 111.892 36.746C112.256 36.0527 112.672 35.4027 113.14 34.796C113.625 34.1893 114.136 33.6607 114.674 33.21C115.228 32.7593 115.792 32.404 116.364 32.144C116.953 31.884 117.534 31.754 118.106 31.754C118.903 31.858 119.648 32.352 120.342 33.236ZM118.548 34.094C118.08 34.1633 117.594 34.354 117.092 34.666C116.589 34.978 116.112 35.394 115.662 35.914C115.228 36.434 114.83 37.0407 114.466 37.734C114.102 38.4273 113.816 39.1727 113.608 39.97C114.994 39.2767 116.147 38.4273 117.066 37.422C117.984 36.3993 118.478 35.29 118.548 34.094ZM123.937 44.182C124.735 43.6447 125.515 42.96 126.277 42.128C127.04 41.2787 127.733 40.3687 128.357 39.398C128.981 38.41 129.51 37.3873 129.943 36.33C130.377 35.2727 130.671 34.2587 130.827 33.288C130.827 33.08 130.715 32.9413 130.489 32.872C130.247 32.872 129.909 33.0887 129.475 33.522C129.059 33.938 128.591 34.4753 128.071 35.134C127.569 35.7927 127.049 36.5293 126.511 37.344C125.991 38.1587 125.515 38.9733 125.081 39.788C124.648 40.5853 124.275 41.3393 123.963 42.05C123.669 42.7433 123.504 43.3067 123.469 43.74C123.296 43.74 123.149 43.5667 123.027 43.22C122.993 43.1333 122.932 43.0467 122.845 42.96C122.759 42.856 122.62 42.7347 122.429 42.596C122.343 42.5267 122.256 42.4487 122.169 42.362C122.083 42.258 122.022 42.1713 121.987 42.102C121.918 41.9633 121.883 41.738 121.883 41.426C121.883 40.4033 122.013 39.2507 122.273 37.968C122.533 36.6853 122.871 35.3767 123.287 34.042C123.721 32.7073 124.223 31.3987 124.795 30.116C125.367 28.816 125.957 27.6287 126.563 26.554C127.187 25.4793 127.811 24.5693 128.435 23.824C129.059 23.0787 129.649 22.5847 130.203 22.342C130.377 22.394 130.585 22.4807 130.827 22.602C131.07 22.7233 131.313 22.862 131.555 23.018C131.798 23.174 132.023 23.33 132.231 23.486C132.457 23.642 132.621 23.7807 132.725 23.902C130.819 25.4447 129.163 27.4293 127.759 29.856C126.373 32.2653 125.237 35.1167 124.353 38.41C124.839 37.5087 125.385 36.642 125.991 35.81C126.598 34.9607 127.196 34.2153 127.785 33.574C128.392 32.9327 128.964 32.4213 129.501 32.04C130.056 31.6587 130.515 31.468 130.879 31.468C131.157 31.5373 131.425 31.6587 131.685 31.832C131.945 32.0053 132.179 32.222 132.387 32.482C132.595 32.7247 132.769 32.9933 132.907 33.288C133.046 33.5653 133.133 33.86 133.167 34.172C133.15 34.9 133.02 35.68 132.777 36.512C132.552 37.3267 132.24 38.1327 131.841 38.93C131.46 39.7273 131.018 40.49 130.515 41.218C130.03 41.946 129.51 42.5873 128.955 43.142C128.418 43.6793 127.872 44.1127 127.317 44.442C126.78 44.7713 126.269 44.936 125.783 44.936C125.575 44.936 125.359 44.91 125.133 44.858C124.925 44.8233 124.726 44.7627 124.535 44.676C124.362 44.6067 124.215 44.5287 124.093 44.442C123.989 44.3553 123.937 44.2687 123.937 44.182ZM142.808 42.336C142.808 41.5733 142.99 40.5073 143.354 39.138C143.718 37.7513 144.229 36.1393 144.888 34.302C145.425 32.8287 145.936 31.494 146.422 30.298C146.924 29.0847 147.418 27.984 147.904 26.996C147.592 26.9093 147.262 26.8487 146.916 26.814C146.586 26.762 146.344 26.736 146.188 26.736C145.512 26.736 144.905 26.9007 144.368 27.23C143.848 27.5593 143.38 28.01 142.964 28.582C142.548 29.1367 142.175 29.778 141.846 30.506C141.516 31.2167 141.222 31.962 140.962 32.742C141.326 32.7073 141.698 32.6813 142.08 32.664C142.478 32.6467 142.886 32.6293 143.302 32.612C143.094 32.8027 142.912 33.054 142.756 33.366C142.6 33.6607 142.504 33.8773 142.47 34.016H141.69C141.499 34.016 141.308 34.016 141.118 34.016C140.927 34.016 140.736 34.0247 140.546 34.042C139.679 36.7633 138.899 39.138 138.206 41.166C137.53 43.194 136.897 44.9273 136.308 46.366C135.736 47.822 135.181 49.0093 134.644 49.928C134.124 50.864 133.595 51.592 133.058 52.112C132.538 52.6493 131.983 53.022 131.394 53.23C130.804 53.438 130.154 53.542 129.444 53.542C128.213 53.542 127.164 53.126 126.298 52.294C126.298 52.1727 126.332 52.0427 126.402 51.904C126.471 51.7653 126.549 51.67 126.636 51.618C126.878 51.9127 127.199 52.138 127.598 52.294C127.996 52.4673 128.412 52.554 128.846 52.554C129.296 52.554 129.712 52.45 130.094 52.242C130.458 52.0513 130.822 51.722 131.186 51.254C131.532 50.786 131.879 50.1707 132.226 49.408C132.59 48.6453 132.98 47.7007 133.396 46.574C134.002 44.91 134.626 43.0207 135.268 40.906C135.926 38.7913 136.594 36.5553 137.27 34.198C136.611 34.2327 136.065 34.276 135.632 34.328C135.198 34.38 134.912 34.4147 134.774 34.432C134.704 34.3627 134.644 34.2673 134.592 34.146C134.557 34.0247 134.54 33.912 134.54 33.808C134.817 33.7213 135.207 33.6173 135.71 33.496C136.212 33.3747 136.836 33.2533 137.582 33.132C137.998 31.884 138.457 30.7573 138.96 29.752C139.462 28.7293 140 27.8713 140.572 27.178C141.161 26.4673 141.785 25.9213 142.444 25.54C143.12 25.1587 143.848 24.968 144.628 24.968C144.853 24.968 145.13 25.0113 145.46 25.098C145.789 25.1847 146.127 25.2973 146.474 25.436C146.82 25.5573 147.158 25.6873 147.488 25.826C147.817 25.9647 148.094 26.0773 148.32 26.164C149.134 24.5693 149.923 23.3213 150.686 22.42C150.894 22.4547 151.145 22.5413 151.44 22.68C151.752 22.8187 152.055 22.9747 152.35 23.148C152.644 23.304 152.904 23.4687 153.13 23.642C153.372 23.8153 153.528 23.954 153.598 24.058C152.246 25.6527 151.058 27.3687 150.036 29.206C149.013 31.0433 148.077 33.1493 147.228 35.524C146.5 37.5693 145.945 39.4153 145.564 41.062C145.182 42.6913 144.992 44.052 144.992 45.144C144.992 45.4387 144.992 45.6207 144.992 45.69C144.992 45.7593 145 45.8287 145.018 45.898C144.775 45.8633 144.567 45.8027 144.394 45.716C144.22 45.6293 144.108 45.5253 144.056 45.404C144.021 45.3173 143.926 45.1873 143.77 45.014C143.614 44.858 143.475 44.7367 143.354 44.65C143.198 44.546 143.068 44.2773 142.964 43.844C142.86 43.3933 142.808 42.8907 142.808 42.336ZM151.934 44.91C150.946 44.806 150.157 44.3727 149.568 43.61C148.978 42.8473 148.684 41.8767 148.684 40.698C148.684 40.0047 148.788 39.2853 148.996 38.54C149.204 37.7947 149.498 37.0753 149.88 36.382C150.261 35.6713 150.712 35.004 151.232 34.38C151.752 33.756 152.315 33.2187 152.922 32.768C153.875 32.0573 154.768 31.702 155.6 31.702C156.154 31.9967 156.7 32.612 157.238 33.548C157.324 33.548 157.402 33.548 157.472 33.548C157.541 33.5307 157.619 33.522 157.706 33.522C158.624 33.522 159.084 34.3367 159.084 35.966C159.084 37.058 158.902 38.098 158.538 39.086C158.191 40.0567 157.697 40.9407 157.056 41.738C156.432 42.5353 155.678 43.2113 154.794 43.766C153.927 44.3033 152.974 44.6847 151.934 44.91ZM153.26 36.72C152.965 37.1187 152.688 37.552 152.428 38.02C152.168 38.488 151.942 38.9647 151.752 39.45C151.561 39.918 151.414 40.3773 151.31 40.828C151.206 41.2613 151.154 41.6513 151.154 41.998C151.154 42.414 151.223 42.8127 151.362 43.194C151.5 43.5753 151.656 43.792 151.83 43.844C152.61 43.6707 153.32 43.35 153.962 42.882C154.62 42.3967 155.184 41.7987 155.652 41.088C156.137 40.3773 156.51 39.5713 156.77 38.67C157.047 37.7687 157.186 36.8067 157.186 35.784C157.186 35.3333 157.16 34.978 157.108 34.718C157.056 34.458 156.969 34.2327 156.848 34.042C156.085 34.2673 155.4 34.6313 154.794 35.134C154.204 35.6367 153.693 36.1653 153.26 36.72ZM160.576 42.934C160.576 42.5873 160.611 42.102 160.68 41.478C160.767 40.854 160.871 40.178 160.992 39.45C161.131 38.722 161.278 37.9767 161.434 37.214C161.608 36.4513 161.781 35.7667 161.954 35.16C162.18 34.3453 162.526 33.7213 162.994 33.288C163.48 32.8373 164.078 32.612 164.788 32.612C165.17 32.612 165.542 32.6727 165.906 32.794C166.288 32.9153 166.513 33.0713 166.582 33.262C166.08 33.678 165.672 34.198 165.36 34.822C165.066 35.4287 164.823 36.0873 164.632 36.798C164.459 37.4913 164.32 38.2107 164.216 38.956C164.13 39.684 164.034 40.3687 163.93 41.01C164.502 40.2473 165.04 39.5627 165.542 38.956C166.062 38.332 166.522 37.838 166.92 37.474C167.458 36.9713 167.822 36.5553 168.012 36.226C168.203 35.8793 168.368 35.5067 168.506 35.108C168.61 34.796 168.732 34.432 168.87 34.016C169.026 33.6 169.278 33.2187 169.624 32.872C169.694 32.8547 169.841 32.846 170.066 32.846C170.24 32.846 170.422 32.8547 170.612 32.872C170.82 32.8893 171.011 32.924 171.184 32.976C171.358 33.028 171.505 33.0887 171.626 33.158C171.748 33.2273 171.817 33.314 171.834 33.418C171.557 33.782 171.297 34.354 171.054 35.134C170.812 35.8967 170.595 36.7373 170.404 37.656C170.214 38.5747 170.04 39.4933 169.884 40.412C169.728 41.3133 169.59 42.076 169.468 42.7C169.538 42.6653 169.694 42.5267 169.936 42.284C170.179 42.0413 170.448 41.738 170.742 41.374C171.054 41.01 171.375 40.6113 171.704 40.178C172.051 39.7447 172.354 39.32 172.614 38.904C172.944 38.4013 173.212 37.9333 173.42 37.5C173.646 37.0493 173.836 36.5727 173.992 36.07C174.166 35.5673 174.322 35.0127 174.46 34.406C174.599 33.782 174.746 33.0453 174.902 32.196C175.006 32.0573 175.232 31.9447 175.578 31.858C175.942 31.754 176.272 31.702 176.566 31.702C176.826 31.702 177.017 31.7453 177.138 31.832C177.052 32.8027 176.887 33.6693 176.644 34.432C176.419 35.1947 176.107 35.94 175.708 36.668C175.31 37.3787 174.816 38.098 174.226 38.826C173.637 39.5367 172.944 40.3167 172.146 41.166C171.817 41.5127 171.453 41.894 171.054 42.31C170.673 42.726 170.292 43.116 169.91 43.48C169.546 43.8267 169.2 44.1213 168.87 44.364C168.558 44.6067 168.316 44.728 168.142 44.728C167.744 44.728 167.414 44.572 167.154 44.26C166.894 43.948 166.764 43.5493 166.764 43.064C166.764 42.5613 166.782 42.128 166.816 41.764C166.868 41.3827 166.946 40.984 167.05 40.568C167.154 40.1867 167.232 39.866 167.284 39.606C167.354 39.346 167.406 39.1207 167.44 38.93C167.492 38.7393 167.527 38.5747 167.544 38.436C167.562 38.2973 167.579 38.1587 167.596 38.02C167.458 38.0893 167.276 38.2367 167.05 38.462C166.825 38.67 166.591 38.9213 166.348 39.216C166.106 39.4933 165.863 39.7793 165.62 40.074C165.378 40.3687 165.178 40.62 165.022 40.828C164.693 41.2787 164.407 41.6773 164.164 42.024C163.922 42.3707 163.688 42.7 163.462 43.012C163.254 43.324 163.046 43.6447 162.838 43.974C162.63 44.286 162.388 44.624 162.11 44.988C161.556 44.8147 161.157 44.5547 160.914 44.208C160.689 43.8613 160.576 43.4367 160.576 42.934Z" fill="black"/>
</svg>
