<svg width="199" height="70" viewBox="0 0 199 70" fill="none" xmlns="http://www.w3.org/2000/svg">
<path fill-rule="evenodd" clip-rule="evenodd" d="M35 5.83331C18.9175 5.83331 5.83334 18.9175 5.83334 35C5.83334 51.0825 18.9175 64.1666 35 64.1666C51.0825 64.1666 64.1667 51.0825 64.1667 35C64.1667 18.9175 51.0825 5.83331 35 5.83331ZM35 62.8308C19.6554 62.8308 7.17209 50.3446 7.17209 35C7.17209 19.6554 19.6554 7.16915 35 7.16915C50.3446 7.16915 62.8308 19.6525 62.8308 35C62.8308 50.3416 50.3475 62.8308 35 62.8308ZM9.98084 35C9.98059 39.6985 11.3031 44.3022 13.797 48.2843C16.291 52.2663 19.8556 55.4658 24.0829 57.5166L12.145 24.8208C10.7158 28.0239 9.97835 31.4925 9.98084 35ZM51.8933 33.74C51.8933 30.6483 50.7792 28.5075 49.8283 26.8391C48.5596 24.7771 47.3696 23.0329 47.3696 20.9708C47.3696 18.6725 49.1138 16.5316 51.5696 16.5316C51.6824 16.5336 51.7913 16.5404 51.8963 16.5521C47.2889 12.3174 41.2578 9.96971 35 9.97498C30.8531 9.97317 26.7709 11.0031 23.1212 12.9721C19.4715 14.941 16.3691 17.787 14.0933 21.2537C14.6825 21.2712 15.2367 21.2829 15.7063 21.2829C18.3225 21.2829 22.3738 20.965 22.3738 20.965C23.7213 20.8862 23.8817 22.8666 22.5342 23.0271C22.5342 23.0271 21.1779 23.1875 19.67 23.2662L28.7817 50.3679L34.2563 33.9471L30.3596 23.2662C29.0121 23.1875 27.7346 23.0271 27.7346 23.0271C26.3871 22.9483 26.5446 20.8862 27.895 20.965C27.895 20.965 32.025 21.2858 34.4838 21.2858C37.1 21.2858 41.1513 20.965 41.1513 20.965C42.5017 20.8862 42.6592 22.8666 41.3117 23.0271C41.3117 23.0271 39.9554 23.1875 38.4475 23.2662L47.4892 50.1608L49.9888 41.8221C51.0679 38.36 51.8904 35.875 51.8904 33.7341M35.4404 37.1846L27.9329 59.0012C32.9731 60.4876 38.3535 60.3478 43.3096 58.6016C43.2416 58.4901 43.1812 58.3742 43.1288 58.2546L35.4404 37.1846ZM56.9567 22.9921C57.0675 23.7893 57.1239 24.6468 57.1258 25.5646C57.1258 28.1021 56.6504 30.9575 55.2213 34.5275L47.5796 56.6241C51.3652 54.4249 54.5068 51.2699 56.6899 47.4749C58.873 43.6799 60.0211 39.3781 60.0192 35C60.0257 30.8042 58.9723 26.6719 56.9567 22.9921Z" fill="black"/>
<path d="M90.954 44.806C90.8673 44.0953 90.798 43.324 90.746 42.492C90.7113 41.6427 90.694 40.854 90.694 40.126C90.694 38.9647 90.7287 37.8553 90.798 36.798C90.8847 35.7233 90.98 34.6053 91.084 33.444C91.2053 32.2653 91.3353 30.9913 91.474 29.622C91.6127 28.2353 91.734 26.6407 91.838 24.838C92.0633 24.838 92.384 24.9073 92.8 25.046C93.2333 25.1673 93.6667 25.3147 94.1 25.488C94.5333 25.6613 94.9147 25.8433 95.244 26.034C95.5733 26.2073 95.764 26.3547 95.816 26.476C95.5213 27.152 95.2527 28.0447 95.01 29.154C94.7847 30.246 94.594 31.442 94.438 32.742C94.282 34.042 94.1607 35.3767 94.074 36.746C93.9873 38.1153 93.944 39.398 93.944 40.594C93.944 41.1487 93.9527 41.6947 93.97 42.232C93.9873 42.7693 94.0133 43.2633 94.048 43.714C94.412 43.1767 94.828 42.414 95.296 41.426C95.7813 40.4207 96.2753 39.3027 96.778 38.072C97.298 36.8413 97.8093 35.5587 98.312 34.224C98.832 32.872 99.3087 31.5893 99.742 30.376C100.175 29.1453 100.539 28.0447 100.834 27.074C101.146 26.086 101.363 25.3407 101.484 24.838C101.709 24.838 102.039 24.9073 102.472 25.046C102.923 25.1673 103.356 25.3147 103.772 25.488C104.205 25.6613 104.587 25.8433 104.916 26.034C105.245 26.2073 105.427 26.3547 105.462 26.476C105.167 27.152 104.899 28.0447 104.656 29.154C104.431 30.246 104.24 31.442 104.084 32.742C103.928 34.042 103.807 35.3767 103.72 36.746C103.633 38.1153 103.59 39.398 103.59 40.594C103.59 41.0967 103.59 41.5993 103.59 42.102C103.607 42.5873 103.633 43.0293 103.668 43.428C104.223 41.9893 104.795 40.568 105.384 39.164C105.991 37.7427 106.589 36.3907 107.178 35.108C107.767 33.808 108.339 32.6033 108.894 31.494C109.449 30.3673 109.96 29.3707 110.428 28.504C110.896 27.62 111.303 26.892 111.65 26.32C111.997 25.748 112.265 25.3667 112.456 25.176C112.855 25.228 113.262 25.3753 113.678 25.618C114.111 25.8433 114.493 26.138 114.822 26.502C114.319 26.9007 113.747 27.5593 113.106 28.478C112.465 29.3793 111.806 30.428 111.13 31.624C110.454 32.82 109.769 34.094 109.076 35.446C108.4 36.798 107.767 38.1153 107.178 39.398C106.589 40.6807 106.06 41.8767 105.592 42.986C105.141 44.0953 104.795 44.988 104.552 45.664C104.101 45.872 103.659 45.976 103.226 45.976C102.671 45.9067 102.143 45.768 101.64 45.56C101.155 45.352 100.808 45.1007 100.6 44.806C100.548 44.5287 100.505 44.208 100.47 43.844C100.435 43.4627 100.409 43.09 100.392 42.726C100.375 42.362 100.357 42.0153 100.34 41.686C100.34 41.3393 100.34 41.0447 100.34 40.802C100.34 39.2593 100.401 37.6907 100.522 36.096C100.643 34.484 100.791 32.7593 100.964 30.922C100.565 32.1007 100.123 33.366 99.638 34.718C99.1527 36.07 98.6413 37.4133 98.104 38.748C97.584 40.0653 97.0467 41.3307 96.492 42.544C95.9547 43.74 95.426 44.78 94.906 45.664C94.4553 45.872 94.0133 45.976 93.58 45.976C93.0253 45.9067 92.4967 45.768 91.994 45.56C91.5087 45.352 91.162 45.1007 90.954 44.806ZM114.102 44.91C113.114 44.806 112.325 44.3727 111.736 43.61C111.146 42.8473 110.852 41.8767 110.852 40.698C110.852 40.0047 110.956 39.2853 111.164 38.54C111.372 37.7947 111.666 37.0753 112.048 36.382C112.429 35.6713 112.88 35.004 113.4 34.38C113.92 33.756 114.483 33.2187 115.09 32.768C116.043 32.0573 116.936 31.702 117.768 31.702C118.322 31.9967 118.868 32.612 119.406 33.548C119.492 33.548 119.57 33.548 119.64 33.548C119.709 33.5307 119.787 33.522 119.874 33.522C120.792 33.522 121.252 34.3367 121.252 35.966C121.252 37.058 121.07 38.098 120.706 39.086C120.359 40.0567 119.865 40.9407 119.224 41.738C118.6 42.5353 117.846 43.2113 116.962 43.766C116.095 44.3033 115.142 44.6847 114.102 44.91ZM115.428 36.72C115.133 37.1187 114.856 37.552 114.596 38.02C114.336 38.488 114.11 38.9647 113.92 39.45C113.729 39.918 113.582 40.3773 113.478 40.828C113.374 41.2613 113.322 41.6513 113.322 41.998C113.322 42.414 113.391 42.8127 113.53 43.194C113.668 43.5753 113.824 43.792 113.998 43.844C114.778 43.6707 115.488 43.35 116.13 42.882C116.788 42.3967 117.352 41.7987 117.82 41.088C118.305 40.3773 118.678 39.5713 118.938 38.67C119.215 37.7687 119.354 36.8067 119.354 35.784C119.354 35.3333 119.328 34.978 119.276 34.718C119.224 34.458 119.137 34.2327 119.016 34.042C118.253 34.2673 117.568 34.6313 116.962 35.134C116.372 35.6367 115.861 36.1653 115.428 36.72ZM121.886 43.48C121.973 42.9773 122.12 42.3187 122.328 41.504C122.554 40.672 122.814 39.7967 123.108 38.878C123.403 37.942 123.715 37.006 124.044 36.07C124.374 35.134 124.694 34.2933 125.006 33.548C125.232 33.0107 125.431 32.5947 125.604 32.3C125.778 31.988 125.968 31.728 126.176 31.52C126.419 31.5547 126.67 31.6153 126.93 31.702C127.19 31.7887 127.442 31.8927 127.684 32.014C127.927 32.1353 128.144 32.2653 128.334 32.404C128.525 32.5253 128.672 32.6467 128.776 32.768C128.308 33.3227 127.892 33.9553 127.528 34.666C127.182 35.3767 126.826 36.2867 126.462 37.396C127.398 36.564 128.222 35.7667 128.932 35.004C129.66 34.2413 130.336 33.392 130.96 32.456C131.064 32.3693 131.246 32.326 131.506 32.326C131.749 32.326 131.983 32.3693 132.208 32.456C132.434 32.5253 132.59 32.6293 132.676 32.768C132.364 33.6 132.208 34.4233 132.208 35.238C132.208 36.0007 132.321 36.5727 132.546 36.954C132.529 37.058 132.408 37.2573 132.182 37.552C131.974 37.8467 131.74 38.124 131.48 38.384C131.012 38.1413 130.596 37.812 130.232 37.396C129.868 36.9627 129.6 36.4947 129.426 35.992C128.612 36.564 127.918 37.1273 127.346 37.682C126.774 38.2193 126.28 38.826 125.864 39.502C125.466 40.1607 125.119 40.9233 124.824 41.79C124.547 42.6567 124.278 43.688 124.018 44.884C123.862 44.8667 123.672 44.806 123.446 44.702C123.238 44.6153 123.022 44.5027 122.796 44.364C122.588 44.2253 122.398 44.078 122.224 43.922C122.051 43.766 121.938 43.6187 121.886 43.48ZM138.665 31.858C139.011 31.858 139.41 31.962 139.861 32.17C140.311 32.378 140.71 32.6467 141.057 32.976C140.97 32.2827 140.857 31.6327 140.719 31.026C140.597 30.402 140.407 29.7607 140.147 29.102C139.904 28.4433 139.575 27.724 139.159 26.944C138.743 26.164 138.223 25.2713 137.599 24.266C137.651 24.11 137.763 23.928 137.937 23.72C138.127 23.512 138.335 23.3213 138.561 23.148C138.803 22.9573 139.046 22.7927 139.289 22.654C139.549 22.5153 139.791 22.4287 140.017 22.394C140.502 22.9313 140.961 23.6073 141.395 24.422C141.828 25.2193 142.209 26.086 142.539 27.022C142.868 27.9407 143.119 28.894 143.293 29.882C143.483 30.87 143.579 31.8147 143.579 32.716C143.579 33.6173 143.475 34.5447 143.267 35.498C143.076 36.4513 142.799 37.3873 142.435 38.306C142.088 39.2073 141.681 40.0653 141.213 40.88C140.745 41.6947 140.233 42.4227 139.679 43.064C139.141 43.7053 138.578 44.2253 137.989 44.624C137.399 45.04 136.81 45.3 136.221 45.404C135.025 45.2653 134.106 44.8753 133.465 44.234C132.841 43.61 132.529 42.7433 132.529 41.634C132.529 41.0447 132.615 40.4033 132.789 39.71C132.979 39.0167 133.222 38.332 133.517 37.656C133.829 36.9627 134.184 36.2953 134.583 35.654C134.999 34.9953 135.432 34.406 135.883 33.886C136.351 33.366 136.819 32.924 137.287 32.56C137.755 32.196 138.214 31.962 138.665 31.858ZM136.013 44.364C136.619 44.156 137.226 43.6967 137.833 42.986C138.439 42.2753 138.985 41.4433 139.471 40.49C139.956 39.5193 140.346 38.488 140.641 37.396C140.953 36.2867 141.109 35.2207 141.109 34.198C141.109 33.9033 141.109 33.7213 141.109 33.652C141.109 33.5827 141.1 33.5133 141.083 33.444C140.667 33.6173 140.225 33.912 139.757 34.328C139.289 34.744 138.821 35.2293 138.353 35.784C137.885 36.3213 137.443 36.9107 137.027 37.552C136.611 38.1933 136.238 38.8347 135.909 39.476C135.579 40.1173 135.319 40.7327 135.129 41.322C134.938 41.9113 134.843 42.4313 134.843 42.882C134.843 43.7487 135.233 44.2427 136.013 44.364ZM161.268 29.986C161.268 30.9393 161.025 31.8493 160.54 32.716C160.072 33.5827 159.43 34.3453 158.616 35.004C157.818 35.6453 156.874 36.1567 155.782 36.538C154.707 36.9193 153.563 37.11 152.35 37.11C151.916 37.11 151.57 37.058 151.31 36.954C151.067 36.8327 150.79 36.6073 150.478 36.278C149.611 38.1673 148.9 39.9093 148.346 41.504C147.808 43.0813 147.384 44.6153 147.072 46.106C146.413 45.95 145.876 45.6727 145.46 45.274C145.044 44.8927 144.662 44.4073 144.316 43.818C144.489 43.4887 144.697 43.0553 144.94 42.518C145.182 41.9807 145.477 41.322 145.824 40.542C146.17 39.7447 146.569 38.8 147.02 37.708C147.488 36.5987 148.034 35.3073 148.658 33.834C148.935 33.158 149.178 32.5687 149.386 32.066C149.594 31.5633 149.776 31.0953 149.932 30.662C150.088 30.2113 150.226 29.7693 150.348 29.336C150.486 28.9027 150.625 28.426 150.764 27.906C149.949 28.166 149.195 28.4693 148.502 28.816C147.826 29.1627 147.262 29.5267 146.812 29.908C146.656 29.804 146.491 29.648 146.318 29.44C146.162 29.232 146.014 29.0067 145.876 28.764C145.737 28.504 145.616 28.244 145.512 27.984C145.408 27.724 145.347 27.49 145.33 27.282C145.832 26.9353 146.456 26.6147 147.202 26.32C147.947 26.0253 148.744 25.774 149.594 25.566C150.443 25.3407 151.318 25.1673 152.22 25.046C153.138 24.9247 154.014 24.864 154.846 24.864C155.834 24.864 156.726 24.994 157.524 25.254C158.321 25.4967 158.997 25.8433 159.552 26.294C160.106 26.7447 160.531 27.282 160.826 27.906C161.12 28.53 161.268 29.2233 161.268 29.986ZM156.64 26.866C155.981 26.866 155.305 26.918 154.612 27.022L154.924 27.49C154.75 27.7153 154.534 28.0533 154.274 28.504C154.014 28.9547 153.728 29.5007 153.416 30.142C153.104 30.766 152.757 31.468 152.376 32.248C152.012 33.028 151.622 33.8513 151.206 34.718C152.558 34.718 153.788 34.5967 154.898 34.354C156.007 34.094 156.952 33.7473 157.732 33.314C158.529 32.8633 159.144 32.3433 159.578 31.754C160.028 31.1647 160.254 30.532 160.254 29.856C160.254 28.9547 159.95 28.2353 159.344 27.698C158.737 27.1433 157.836 26.866 156.64 26.866ZM159.337 43.48C159.424 42.9773 159.571 42.3187 159.779 41.504C160.005 40.672 160.265 39.7967 160.559 38.878C160.854 37.942 161.166 37.006 161.495 36.07C161.825 35.134 162.145 34.2933 162.457 33.548C162.683 33.0107 162.882 32.5947 163.055 32.3C163.229 31.988 163.419 31.728 163.627 31.52C163.87 31.5547 164.121 31.6153 164.381 31.702C164.641 31.7887 164.893 31.8927 165.135 32.014C165.378 32.1353 165.595 32.2653 165.785 32.404C165.976 32.5253 166.123 32.6467 166.227 32.768C165.759 33.3227 165.343 33.9553 164.979 34.666C164.633 35.3767 164.277 36.2867 163.913 37.396C164.849 36.564 165.673 35.7667 166.383 35.004C167.111 34.2413 167.787 33.392 168.411 32.456C168.515 32.3693 168.697 32.326 168.957 32.326C169.2 32.326 169.434 32.3693 169.659 32.456C169.885 32.5253 170.041 32.6293 170.127 32.768C169.815 33.6 169.659 34.4233 169.659 35.238C169.659 36.0007 169.772 36.5727 169.997 36.954C169.98 37.058 169.859 37.2573 169.633 37.552C169.425 37.8467 169.191 38.124 168.931 38.384C168.463 38.1413 168.047 37.812 167.683 37.396C167.319 36.9627 167.051 36.4947 166.877 35.992C166.063 36.564 165.369 37.1273 164.797 37.682C164.225 38.2193 163.731 38.826 163.315 39.502C162.917 40.1607 162.57 40.9233 162.275 41.79C161.998 42.6567 161.729 43.688 161.469 44.884C161.313 44.8667 161.123 44.806 160.897 44.702C160.689 44.6153 160.473 44.5027 160.247 44.364C160.039 44.2253 159.849 44.078 159.675 43.922C159.502 43.766 159.389 43.6187 159.337 43.48ZM179.756 33.236C179.686 34.3107 179.496 35.238 179.184 36.018C178.872 36.7807 178.421 37.4567 177.832 38.046C177.26 38.618 176.558 39.138 175.726 39.606C174.894 40.074 173.923 40.5247 172.814 40.958C172.814 41.062 172.805 41.1747 172.788 41.296C172.788 41.4 172.788 41.5127 172.788 41.634C172.788 41.8593 172.805 42.0933 172.84 42.336C172.874 42.5787 172.935 42.804 173.022 43.012C173.108 43.22 173.23 43.3933 173.386 43.532C173.542 43.6533 173.741 43.714 173.984 43.714C174.452 43.714 174.911 43.61 175.362 43.402C175.812 43.194 176.237 42.9427 176.636 42.648C177.052 42.336 177.433 42.0067 177.78 41.66C178.144 41.296 178.464 40.9667 178.742 40.672C178.915 40.828 179.062 40.9753 179.184 41.114C178.404 42.154 177.546 43.0207 176.61 43.714C175.691 44.39 174.816 44.8233 173.984 45.014C172.788 44.8753 171.852 44.442 171.176 43.714C170.517 42.9687 170.188 42.076 170.188 41.036C170.188 40.3253 170.283 39.606 170.474 38.878C170.682 38.1327 170.959 37.422 171.306 36.746C171.67 36.0527 172.086 35.4027 172.554 34.796C173.039 34.1893 173.55 33.6607 174.088 33.21C174.642 32.7593 175.206 32.404 175.778 32.144C176.367 31.884 176.948 31.754 177.52 31.754C178.317 31.858 179.062 32.352 179.756 33.236ZM177.962 34.094C177.494 34.1633 177.008 34.354 176.506 34.666C176.003 34.978 175.526 35.394 175.076 35.914C174.642 36.434 174.244 37.0407 173.88 37.734C173.516 38.4273 173.23 39.1727 173.022 39.97C174.408 39.2767 175.561 38.4273 176.48 37.422C177.398 36.3993 177.892 35.29 177.962 34.094ZM189.93 33.652C189.912 33.9813 189.852 34.328 189.748 34.692C189.661 35.0387 189.548 35.3593 189.41 35.654C189.271 35.9313 189.124 36.1653 188.968 36.356C188.812 36.5467 188.664 36.642 188.526 36.642C188.335 36.6247 188.222 36.4947 188.188 36.252C188.188 36.2 188.205 36.122 188.24 36.018C188.292 35.8967 188.344 35.7667 188.396 35.628C188.448 35.4893 188.491 35.3507 188.526 35.212C188.578 35.0733 188.604 34.952 188.604 34.848C188.604 34.6053 188.543 34.406 188.422 34.25C188.318 34.0767 188.17 33.99 187.98 33.99C187.286 33.99 186.758 34.4233 186.394 35.29C186.03 36.1567 185.848 37.4307 185.848 39.112C185.848 39.2853 185.856 39.3893 185.874 39.424C186.238 39.4067 186.558 39.398 186.836 39.398C187.13 39.3807 187.416 39.372 187.694 39.372C187.711 39.4067 187.72 39.476 187.72 39.58C187.72 39.736 187.685 39.8487 187.616 39.918C187.217 40.0047 186.896 40.0827 186.654 40.152C186.428 40.204 186.255 40.256 186.134 40.308C186.012 40.36 185.934 40.4207 185.9 40.49C185.882 40.542 185.874 40.62 185.874 40.724C185.874 40.8627 185.874 41.0013 185.874 41.14C185.891 41.2787 185.9 41.452 185.9 41.66C185.9 43.116 185.501 44.286 184.704 45.17C183.924 46.054 182.832 46.5653 181.428 46.704C181.185 46.6867 180.934 46.6173 180.674 46.496C180.414 46.3747 180.162 46.2187 179.92 46.028C179.694 45.8373 179.495 45.6207 179.322 45.378C179.148 45.1527 179.027 44.9187 178.958 44.676C178.958 44.0173 179.096 43.3933 179.374 42.804C179.651 42.1973 180.024 41.6687 180.492 41.218C180.977 40.75 181.54 40.3773 182.182 40.1C182.84 39.8053 183.551 39.632 184.314 39.58C184.314 39.1467 184.27 38.722 184.184 38.306C184.097 37.89 184.002 37.4913 183.898 37.11C183.811 36.7113 183.724 36.33 183.638 35.966C183.551 35.5847 183.508 35.212 183.508 34.848C183.508 34.38 183.603 33.9207 183.794 33.47C183.984 33.002 184.236 32.5773 184.548 32.196C184.86 31.7973 185.224 31.4593 185.64 31.182C186.056 30.9047 186.489 30.714 186.94 30.61C187.13 30.662 187.382 30.818 187.694 31.078C188.023 31.3207 188.344 31.598 188.656 31.91C188.968 32.222 189.245 32.5427 189.488 32.872C189.73 33.184 189.878 33.444 189.93 33.652ZM181.35 45.508C181.766 45.3347 182.156 45.0833 182.52 44.754C182.901 44.4247 183.23 44.052 183.508 43.636C183.785 43.22 184.002 42.778 184.158 42.31C184.331 41.842 184.418 41.3827 184.418 40.932C184.071 40.984 183.69 41.1487 183.274 41.426C182.858 41.686 182.468 42.0067 182.104 42.388C181.74 42.752 181.436 43.1333 181.194 43.532C180.951 43.9307 180.83 44.2773 180.83 44.572C180.83 44.9533 181.003 45.2653 181.35 45.508ZM198.918 33.652C198.9 33.9813 198.84 34.328 198.736 34.692C198.649 35.0387 198.536 35.3593 198.398 35.654C198.259 35.9313 198.112 36.1653 197.956 36.356C197.8 36.5467 197.652 36.642 197.514 36.642C197.323 36.6247 197.21 36.4947 197.176 36.252C197.176 36.2 197.193 36.122 197.228 36.018C197.28 35.8967 197.332 35.7667 197.384 35.628C197.436 35.4893 197.479 35.3507 197.514 35.212C197.566 35.0733 197.592 34.952 197.592 34.848C197.592 34.6053 197.531 34.406 197.41 34.25C197.306 34.0767 197.158 33.99 196.968 33.99C196.274 33.99 195.746 34.4233 195.382 35.29C195.018 36.1567 194.836 37.4307 194.836 39.112C194.836 39.2853 194.844 39.3893 194.862 39.424C195.226 39.4067 195.546 39.398 195.824 39.398C196.118 39.3807 196.404 39.372 196.682 39.372C196.699 39.4067 196.708 39.476 196.708 39.58C196.708 39.736 196.673 39.8487 196.604 39.918C196.205 40.0047 195.884 40.0827 195.642 40.152C195.416 40.204 195.243 40.256 195.122 40.308C195 40.36 194.922 40.4207 194.888 40.49C194.87 40.542 194.862 40.62 194.862 40.724C194.862 40.8627 194.862 41.0013 194.862 41.14C194.879 41.2787 194.888 41.452 194.888 41.66C194.888 43.116 194.489 44.286 193.692 45.17C192.912 46.054 191.82 46.5653 190.416 46.704C190.173 46.6867 189.922 46.6173 189.662 46.496C189.402 46.3747 189.15 46.2187 188.908 46.028C188.682 45.8373 188.483 45.6207 188.31 45.378C188.136 45.1527 188.015 44.9187 187.946 44.676C187.946 44.0173 188.084 43.3933 188.362 42.804C188.639 42.1973 189.012 41.6687 189.48 41.218C189.965 40.75 190.528 40.3773 191.17 40.1C191.828 39.8053 192.539 39.632 193.302 39.58C193.302 39.1467 193.258 38.722 193.172 38.306C193.085 37.89 192.99 37.4913 192.886 37.11C192.799 36.7113 192.712 36.33 192.626 35.966C192.539 35.5847 192.496 35.212 192.496 34.848C192.496 34.38 192.591 33.9207 192.782 33.47C192.972 33.002 193.224 32.5773 193.536 32.196C193.848 31.7973 194.212 31.4593 194.628 31.182C195.044 30.9047 195.477 30.714 195.928 30.61C196.118 30.662 196.37 30.818 196.682 31.078C197.011 31.3207 197.332 31.598 197.644 31.91C197.956 32.222 198.233 32.5427 198.476 32.872C198.718 33.184 198.866 33.444 198.918 33.652ZM190.338 45.508C190.754 45.3347 191.144 45.0833 191.508 44.754C191.889 44.4247 192.218 44.052 192.496 43.636C192.773 43.22 192.99 42.778 193.146 42.31C193.319 41.842 193.406 41.3827 193.406 40.932C193.059 40.984 192.678 41.1487 192.262 41.426C191.846 41.686 191.456 42.0067 191.092 42.388C190.728 42.752 190.424 43.1333 190.182 43.532C189.939 43.9307 189.818 44.2773 189.818 44.572C189.818 44.9533 189.991 45.2653 190.338 45.508Z" fill="black"/>
</svg>
